<svg width="16" height="17" fill="none" xmlns="http://www.w3.org/2000/svg"><path d="M9.038 6.457a3.849 3.849 0 0 0-.477-.029c-.325 0-.637.078-.936.234a2.635 2.635 0 0 0-.79.634 3.202 3.202 0 0 0-.731 2.057c0 .384.071.67.214.858.15.189.358.283.624.283.143 0 .283-.023.42-.068.142-.046.276-.12.4-.225.123-.11.233-.253.33-.429.105-.175.19-.393.254-.653l.692-2.662Zm1.629 2.34c-.085.351-.13.64-.137.868 0 .228.03.41.088.546a.61.61 0 0 0 .273.283c.123.052.27.078.439.078.234 0 .451-.081.653-.244.208-.169.387-.4.536-.692a4.15 4.15 0 0 0 .351-1.034c.091-.396.137-.828.137-1.296 0-.806-.12-1.515-.361-2.126a4.114 4.114 0 0 0-1.034-1.55 4.36 4.36 0 0 0-1.608-.946c-.624-.214-1.32-.322-2.087-.322a5.62 5.62 0 0 0-2.31.468 5.485 5.485 0 0 0-1.814 1.287 5.888 5.888 0 0 0-1.19 1.902 6.368 6.368 0 0 0-.419 2.32c0 1.04.156 1.953.468 2.74.319.786.754 1.443 1.307 1.97a5.39 5.39 0 0 0 1.979 1.18 7.539 7.539 0 0 0 2.486.399c.514 0 .985-.03 1.414-.088a8.951 8.951 0 0 0 1.18-.214c.35-.085.663-.182.936-.293a6.01 6.01 0 0 0 .702-.331c.208-.11.386-.143.536-.098.156.046.27.16.341.341l.41 1.053a8.084 8.084 0 0 1-1.082.595 9.636 9.636 0 0 1-2.75.79 11.52 11.52 0 0 1-1.687.117c-1.222 0-2.346-.192-3.373-.575a7.752 7.752 0 0 1-2.672-1.629 7.484 7.484 0 0 1-1.755-2.574C.208 10.715 0 9.587 0 8.34c0-.682.091-1.352.273-2.008a7.77 7.77 0 0 1 .78-1.853A8.26 8.26 0 0 1 2.272 2.88a7.83 7.83 0 0 1 1.59-1.258 7.665 7.665 0 0 1 1.9-.828A7.807 7.807 0 0 1 7.917.5c.63 0 1.245.072 1.843.215a7.53 7.53 0 0 1 1.706.624c.54.273 1.034.607 1.482 1.004a6.393 6.393 0 0 1 1.93 3.023c.183.604.274 1.25.274 1.94a5.96 5.96 0 0 1-.322 1.97 5.022 5.022 0 0 1-.887 1.608 4.212 4.212 0 0 1-1.356 1.082 3.686 3.686 0 0 1-2.31.341 2.375 2.375 0 0 1-.556-.204 2.097 2.097 0 0 1-.468-.37 1.855 1.855 0 0 1-.332-.566c-.39.429-.796.734-1.218.916a3.413 3.413 0 0 1-1.365.273c-.423 0-.793-.071-1.112-.214a2.272 2.272 0 0 1-.8-.615 2.68 2.68 0 0 1-.487-.926 4.176 4.176 0 0 1-.156-1.17c0-.37.046-.747.137-1.13.097-.384.24-.752.429-1.103a4.79 4.79 0 0 1 .711-1.004 4.365 4.365 0 0 1 1.024-.819c.39-.234.832-.42 1.326-.556a6.291 6.291 0 0 1 1.658-.204c.286 0 .546.013.78.039.234.02.451.048.653.087.201.04.39.091.565.156.182.059.368.127.556.205l-.955 3.695Z" fill="#FF5C16"/></svg>