<svg width="16" height="17" viewBox="0 0 16 17" fill="none" xmlns="http://www.w3.org/2000/svg">
<path d="M9.03839 6.45734C8.88239 6.43784 8.72314 6.42809 8.56063 6.42809C8.23563 6.42809 7.92362 6.50609 7.62462 6.6621C7.32562 6.8181 7.06236 7.02935 6.83486 7.29586C6.61385 7.56236 6.4351 7.87437 6.2986 8.23187C6.1686 8.58288 6.1036 8.95663 6.1036 9.35314C6.1036 9.73664 6.1751 10.0226 6.3181 10.2112C6.4676 10.3997 6.6756 10.4939 6.94211 10.4939C7.08511 10.4939 7.22486 10.4712 7.36137 10.4257C7.50437 10.3802 7.63762 10.3054 7.76112 10.2014C7.88462 10.0909 7.99513 9.9479 8.09263 9.7724C8.19663 9.59689 8.28113 9.37914 8.34613 9.11913L9.03839 6.45734ZM10.6667 8.79738C10.5822 9.14839 10.5367 9.43764 10.5302 9.66514C10.5302 9.89265 10.5594 10.0746 10.6179 10.2112C10.6829 10.3412 10.7739 10.4354 10.8909 10.4939C11.0144 10.5459 11.1607 10.5719 11.3297 10.5719C11.5637 10.5719 11.7814 10.4907 11.9829 10.3282C12.1909 10.1592 12.3697 9.9284 12.5192 9.63589C12.6687 9.34339 12.7857 8.99888 12.8702 8.60238C12.9612 8.20587 13.0067 7.77361 13.0067 7.30561C13.0067 6.49959 12.8865 5.79108 12.6459 5.18007C12.4054 4.56256 12.0609 4.04581 11.6124 3.6298C11.1704 3.21379 10.6342 2.89854 10.0037 2.68403C9.37965 2.46953 8.68414 2.36228 7.91712 2.36228C7.07861 2.36228 6.30835 2.51828 5.60634 2.83029C4.90433 3.14229 4.29982 3.5713 3.79281 4.11731C3.2858 4.65682 2.8893 5.29057 2.60329 6.01859C2.32379 6.7401 2.18403 7.51361 2.18403 8.33912C2.18403 9.37914 2.34004 10.2924 2.65204 11.0789C2.97055 11.8654 3.40605 12.5219 3.95856 13.0484C4.51757 13.575 5.17733 13.9682 5.93784 14.2282C6.70486 14.4947 7.53362 14.628 8.42413 14.628C8.93764 14.628 9.4089 14.5987 9.8379 14.5402C10.2734 14.4882 10.6667 14.4167 11.0177 14.3257C11.3687 14.2412 11.6807 14.1437 11.9537 14.0332C12.2267 13.9227 12.4607 13.8122 12.6557 13.7017C12.8637 13.5912 13.0425 13.5587 13.192 13.6042C13.348 13.6497 13.4617 13.7635 13.5332 13.9455L13.9427 14.9985C13.6177 15.213 13.257 15.4112 12.8605 15.5932C12.4704 15.7752 12.0447 15.9345 11.5832 16.071C11.1282 16.2075 10.6374 16.3115 10.1109 16.383C9.5844 16.461 9.02214 16.5 8.42413 16.5C7.20211 16.5 6.0776 16.3082 5.05058 15.9247C4.02356 15.5477 3.13305 15.005 2.37904 14.2965C1.63153 13.588 1.04652 12.7299 0.62401 11.7224C0.208003 10.7149 0 9.58714 0 8.33912C0 7.65661 0.0910014 6.9871 0.273004 6.33059C0.455007 5.67408 0.715011 5.05657 1.05302 4.47806C1.39102 3.89955 1.79728 3.36654 2.27179 2.87904C2.74629 2.39153 3.27605 1.97227 3.86106 1.62127C4.44607 1.26376 5.07983 0.987507 5.76234 0.792504C6.44485 0.597501 7.16311 0.5 7.91712 0.5C8.54763 0.5 9.16189 0.571501 9.7599 0.714503C10.3644 0.857506 10.9332 1.06551 11.4662 1.33851C12.0057 1.61152 12.4997 1.94627 12.9482 2.34278C13.4032 2.73928 13.7932 3.19104 14.1182 3.69805C14.4432 4.19856 14.6967 4.75432 14.8787 5.36533C15.0607 5.96984 15.1517 6.6166 15.1517 7.30561C15.1517 8.00112 15.0445 8.65763 14.83 9.27514C14.622 9.88615 14.3262 10.4224 13.9427 10.8839C13.5657 11.3389 13.114 11.6997 12.5874 11.9662C12.0674 12.2327 11.4987 12.3659 10.8812 12.3659C10.6732 12.3659 10.4717 12.3464 10.2767 12.3074C10.0817 12.2619 9.89641 12.1937 9.7209 12.1027C9.5519 12.0052 9.3959 11.8817 9.25289 11.7322C9.11639 11.5762 9.00589 11.3877 8.92139 11.1667C8.53138 11.5957 8.12513 11.9012 7.70262 12.0832C7.28011 12.2652 6.82511 12.3562 6.3376 12.3562C5.91509 12.3562 5.54459 12.2847 5.22608 12.1417C4.90758 11.9922 4.64107 11.7874 4.42657 11.5274C4.21207 11.2674 4.04956 10.9587 3.93906 10.6012C3.83506 10.2437 3.78306 9.85365 3.78306 9.43114C3.78306 9.06063 3.82856 8.68363 3.91956 8.30012C4.01706 7.91662 4.16007 7.54936 4.34857 7.19835C4.53707 6.84085 4.77433 6.50609 5.06033 6.19409C5.35283 5.87558 5.69409 5.60258 6.0841 5.37508C6.4741 5.14107 6.91611 4.95582 7.41012 4.81932C7.91062 4.68282 8.46313 4.61456 9.06764 4.61456C9.35365 4.61456 9.61365 4.62756 9.84766 4.65356C10.0817 4.67307 10.2994 4.70232 10.5009 4.74132C10.7024 4.78032 10.8909 4.83232 11.0664 4.89732C11.2484 4.95582 11.4337 5.02407 11.6222 5.10207L10.6667 8.79738Z" fill="#FF5C16"/>
</svg>
