<svg width="199" height="14" viewBox="0 0 199 14" fill="none" xmlns="http://www.w3.org/2000/svg">
<path d="M4.5686 13.4933L0 0.0354155H3.15198L5.9144 9.10179L8.92472 0H11.4392L14.4495 9.10179L17.212 0.0354155H20.2931L15.7245 13.4933H13.1746L10.1643 4.74568L7.15394 13.4933H4.5686Z" fill="#5E5D79"/>
<path d="M22.489 13.4224V0.0353448H32.5825V2.6561H25.3931V5.38309H31.6971V8.00384H25.3931V10.8017H32.6533V13.4224H22.489Z" fill="#5E5D79"/>
<path d="M35.2734 13.4225V0.0354004H41.4712C43.0294 0.0354004 44.1627 0.424971 44.9773 1.20411C45.5794 1.80618 45.8981 2.58532 45.8981 3.47071V3.54154C45.8981 4.85191 45.296 5.80813 44.1273 6.4102C44.9419 6.72894 45.5794 7.15392 46.0043 7.64974C46.4293 8.14556 46.6418 8.85387 46.6418 9.70384V9.73926C46.6418 10.9434 46.1814 11.8642 45.296 12.4663C44.4106 13.1037 43.1711 13.3871 41.6128 13.3871H35.2734V13.4225ZM42.994 4.03736V4.00194C42.994 3.08114 42.3565 2.62073 41.0816 2.62073H38.1775V5.45398H40.9045C42.2857 5.45398 42.994 4.95816 42.994 4.03736ZM43.7378 9.3851V9.34969C43.7378 8.39347 42.994 7.89765 41.542 7.89765H38.1421V10.8371H41.6482C43.0294 10.8371 43.7378 10.3413 43.7378 9.3851Z" fill="#5E5D79"/>
<path d="M49.0858 13.4224V0.0353448H52.2732L55.7794 5.70183L59.2855 0.0353448H62.4729V13.4224H59.5334V4.67478L55.7794 10.3767H55.7085L51.9899 4.7102V13.387H49.0858V13.4224Z" fill="#5E5D79"/>
<path d="M65.8018 13.4225V0.0354004H68.7412V13.4225H65.8018Z" fill="#5E5D79"/>
<path d="M72.0713 13.4225V0.0354004H74.7983L81.0668 8.28722V0.0354004H83.9709V13.4225H81.4564L74.9754 4.92274V13.4225H72.0713Z" fill="#5E5D79"/>
<path d="M87.1932 13.4224V0.0353448H92.3993C94.4888 0.0353448 96.1887 0.672825 97.4991 1.94778C98.8449 3.22274 99.4824 4.78103 99.4824 6.69347V6.72888C99.4824 8.64132 98.8095 10.235 97.4991 11.51C96.1533 12.7849 94.4534 13.4224 92.3993 13.4224H87.1932ZM92.3993 2.69151H90.1327V10.7663H92.3993C93.6034 10.7663 94.5596 10.4121 95.3033 9.66837C96.0471 8.92465 96.4366 7.96843 96.4366 6.79971V6.72888C96.4366 5.56017 96.0471 4.56853 95.3033 3.82481C94.5596 3.08108 93.6034 2.69151 92.3993 2.69151Z" fill="#5E5D79"/>
<path d="M100.935 13.4226V10.3768H104.016V13.4226H100.935Z" fill="#5E5D79"/>
<path d="M111.382 13.635C109.93 13.635 108.69 13.1392 107.734 12.1476C106.743 11.1559 106.282 9.95181 106.282 8.53519V8.49977C106.282 7.08315 106.778 5.84361 107.77 4.85197C108.761 3.86033 109.965 3.3291 111.453 3.3291C112.905 3.3291 114.144 3.82492 115.136 4.81655C116.128 5.80819 116.624 7.01232 116.624 8.42894V8.49977C116.624 9.91639 116.128 11.1559 115.136 12.1476C114.074 13.1392 112.834 13.635 111.382 13.635ZM111.417 12.3246C112.445 12.3246 113.33 11.9705 114.003 11.2268C114.676 10.483 115.03 9.59765 115.03 8.53519V8.49977C115.03 7.4373 114.676 6.5165 113.967 5.77277C113.259 5.02905 112.374 4.63948 111.347 4.63948C110.284 4.63948 109.434 5.02905 108.761 5.77277C108.088 6.5165 107.734 7.40189 107.734 8.46436V8.49977C107.734 9.56224 108.088 10.483 108.797 11.2268C109.505 11.9705 110.39 12.3246 111.417 12.3246Z" fill="#5E5D79"/>
<path d="M122.821 13.6351C121.652 13.6351 120.731 13.2809 120.058 12.5372C119.385 11.7934 119.031 10.8726 119.031 9.66851V3.54163H120.519V9.31436C120.519 10.2352 120.767 10.9789 121.227 11.5101C121.687 12.0414 122.36 12.2893 123.246 12.2893C124.096 12.2893 124.804 12.0059 125.371 11.4393C125.937 10.8726 126.221 10.1289 126.221 9.20811V3.54163H127.673V13.4226H126.221V11.6872C125.406 12.9976 124.273 13.6351 122.821 13.6351Z" fill="#5E5D79"/>
<path d="M134.296 13.5996C133.446 13.5996 132.773 13.3871 132.277 12.9267C131.781 12.4663 131.534 11.758 131.534 10.8017V4.85193H130.152V3.54156H131.534V0.56665H133.021V3.54156H136.138V4.85193H133.021V10.6247C133.021 11.7225 133.588 12.2538 134.686 12.2538C135.181 12.2538 135.642 12.1475 136.102 11.8996V13.1746C135.536 13.4579 134.969 13.5996 134.296 13.5996Z" fill="#5E5D79"/>
<path d="M141.946 13.5996C140.423 13.5996 139.077 13.1038 137.873 12.1476L138.617 11.0851C139.715 11.9351 140.848 12.3601 142.052 12.3601C142.654 12.3601 143.15 12.2184 143.54 11.9351C143.929 11.6518 144.106 11.2622 144.106 10.8018V10.7664C144.106 10.306 143.894 9.98722 143.469 9.73932C143.044 9.49141 142.442 9.27891 141.627 9.031C141.273 8.92476 141.025 8.85393 140.848 8.7831C140.671 8.71226 140.423 8.64143 140.104 8.49977C139.785 8.35811 139.538 8.25186 139.396 8.1102C139.219 8.00395 139.077 7.82688 138.865 7.6498C138.688 7.47272 138.546 7.26023 138.475 7.01232C138.404 6.76441 138.333 6.5165 138.333 6.19776V6.16234C138.333 5.31237 138.652 4.63948 139.29 4.10824C139.927 3.57701 140.742 3.3291 141.698 3.3291C142.973 3.3291 144.142 3.68326 145.239 4.42698L144.567 5.52487C143.575 4.88739 142.619 4.56865 141.627 4.56865C141.06 4.56865 140.6 4.71031 140.246 4.95822C139.892 5.24154 139.715 5.56028 139.715 5.98527V6.02068C139.715 6.19776 139.75 6.37484 139.856 6.5165C139.963 6.65816 140.069 6.79983 140.21 6.90607C140.352 7.01232 140.529 7.11857 140.813 7.22481C141.096 7.33106 141.308 7.4373 141.485 7.47272C141.663 7.50814 141.91 7.61438 142.265 7.72063C142.619 7.82688 142.937 7.93312 143.185 8.03937C143.433 8.14562 143.717 8.25186 144.035 8.42894C144.354 8.60602 144.602 8.74768 144.779 8.96017C144.956 9.13725 145.133 9.38516 145.239 9.66848C145.381 9.95181 145.417 10.2705 145.417 10.5893V10.6247C145.417 11.5455 145.098 12.2538 144.425 12.7851C143.823 13.3517 142.973 13.5996 141.946 13.5996Z" fill="#5E5D79"/>
<path d="M152.712 13.635C151.26 13.635 150.02 13.1392 149.064 12.1476C148.073 11.1559 147.612 9.9518 147.612 8.53518V8.49976C147.612 7.08314 148.108 5.8436 149.1 4.85196C150.091 3.86033 151.295 3.3291 152.783 3.3291C154.235 3.3291 155.474 3.82491 156.466 4.81655C157.458 5.80818 157.954 7.01231 157.954 8.42893V8.49976C157.954 9.91639 157.458 11.1559 156.466 12.1476C155.439 13.1392 154.2 13.635 152.712 13.635ZM152.747 12.3246C153.775 12.3246 154.66 11.9705 155.333 11.2268C156.006 10.483 156.36 9.59765 156.36 8.53518V8.49976C156.36 7.4373 156.006 6.51649 155.297 5.77277C154.589 5.02904 153.704 4.63947 152.677 4.63947C151.614 4.63947 150.764 5.02904 150.091 5.77277C149.418 6.51649 149.064 7.40188 149.064 8.46435V8.49976C149.064 9.56223 149.418 10.483 150.127 11.2268C150.87 11.9705 151.72 12.3246 152.747 12.3246Z" fill="#5E5D79"/>
<path d="M164.187 13.6351C163.018 13.6351 162.097 13.2809 161.425 12.5372C160.752 11.7934 160.397 10.8726 160.397 9.66851V3.54163H161.885V9.31436C161.885 10.2352 162.133 10.9789 162.593 11.5101C163.054 12.0414 163.727 12.2893 164.612 12.2893C165.462 12.2893 166.17 12.0059 166.737 11.4393C167.303 10.8726 167.587 10.1289 167.587 9.20811V3.54163H169.039V13.4226H167.587V11.6872C166.772 12.9976 165.639 13.6351 164.187 13.6351Z" fill="#5E5D79"/>
<path d="M172.332 13.4224V3.5415H173.82V6.12683C174.209 5.27686 174.74 4.60396 175.449 4.10815C176.157 3.61233 176.936 3.36442 177.857 3.39983V4.95812H177.751C176.617 4.95812 175.697 5.34769 174.953 6.12683C174.209 6.90597 173.855 8.03927 173.855 9.45589V13.387H172.332V13.4224Z" fill="#5E5D79"/>
<path d="M184.09 13.635C182.638 13.635 181.434 13.1392 180.478 12.1122C179.521 11.1205 179.026 9.91639 179.026 8.49976C179.026 7.08314 179.521 5.8436 180.478 4.85196C181.434 3.86033 182.638 3.3291 184.09 3.3291C185.613 3.3291 186.923 3.93116 188.057 5.09987L187.065 6.12692C186.109 5.13529 185.117 4.63947 184.055 4.63947C183.063 4.63947 182.213 4.99363 181.54 5.73735C180.867 6.48108 180.513 7.36647 180.513 8.46435V8.49976C180.513 9.56223 180.867 10.483 181.54 11.2268C182.248 11.9705 183.098 12.3601 184.125 12.3601C185.223 12.3601 186.215 11.8642 187.136 10.8726L188.057 11.758C186.994 12.9975 185.648 13.635 184.09 13.635Z" fill="#5E5D79"/>
<path d="M194.573 13.635C193.192 13.635 192.023 13.1392 191.067 12.183C190.111 11.2268 189.65 9.98722 189.65 8.49976V8.46435C189.65 7.01231 190.111 5.80818 190.996 4.81655C191.882 3.82491 193.015 3.3291 194.396 3.3291C195.813 3.3291 196.946 3.82491 197.761 4.81655C198.575 5.80818 199 7.04773 199 8.53518C199 8.74767 199 8.88934 198.965 8.99558H191.138C191.244 10.0226 191.634 10.8726 192.271 11.4393C192.944 12.0413 193.723 12.3246 194.609 12.3246C195.777 12.3246 196.804 11.8642 197.725 10.9434L198.646 11.758C197.584 13.033 196.202 13.635 194.573 13.635ZM191.138 7.93312H197.513C197.442 6.9769 197.123 6.16234 196.592 5.52486C196.061 4.88738 195.317 4.56864 194.361 4.56864C193.511 4.56864 192.767 4.88738 192.2 5.52486C191.598 6.16234 191.244 6.9769 191.138 7.93312Z" fill="#5E5D79"/>
</svg>
