<svg width="403" height="218" fill="none" xmlns="http://www.w3.org/2000/svg"><g filter="url(#a)"><path d="m148.839 132.671 13.24-.028 13.24-.03 6.789 11.533 6.79 11.533-6.451 11.562-6.45 11.563-13.24.028-13.24.03-6.788-11.534-6.79-11.532 6.451-11.562 6.449-11.563Z" fill="#F1F3F6"/></g><g filter="url(#b)"><path d="m227.818 132.671 13.24-.028 13.24-.03 6.789 11.533 6.79 11.533-6.451 11.562-6.45 11.563-13.24.028-13.24.03-6.788-11.534-6.79-11.532 6.451-11.562 6.449-11.563Z" fill="#F1F3F6"/></g><g filter="url(#c)"><path d="m187.757 109.778 13.24-.028 13.24-.03 6.789 11.534 6.79 11.533-6.451 11.561-6.45 11.563-13.24.029-13.24.029-6.789-11.533-6.79-11.533 6.451-11.562 6.45-11.563Z" fill="#F1F3F6"/></g><g filter="url(#d)"><path d="m109.736 62.386 13.24-.029 13.24-.03 6.789 11.534 6.79 11.533-6.451 11.562-6.45 11.563-13.24.028-13.24.03-6.788-11.534-6.79-11.533 6.451-11.562 6.449-11.562Z" fill="#F1F3F6"/></g><g filter="url(#e)"><path d="m109.922 108.634 13.24-.029 13.24-.029 6.789 11.533 6.79 11.533-6.451 11.562-6.45 11.563-13.24.028-13.24.03-6.789-11.534-6.79-11.532 6.451-11.562 6.45-11.563Z" fill="#F1F3F6"/></g><g filter="url(#f)"><path d="m267.88 63.993 13.24-.028 13.24-.03 6.789 11.534L307.939 87l-6.451 11.562-6.45 11.563-13.24.028-13.24.03-6.788-11.533-6.79-11.533 6.451-11.562 6.449-11.563Z" fill="#F1F3F6"/></g><g filter="url(#g)"><path d="m69.86 131.526 13.24-.028 13.24-.03 6.789 11.534 6.79 11.533-6.451 11.562-6.45 11.562-13.24.029-13.24.029-6.788-11.533-6.79-11.533 6.45-11.562 6.45-11.563Z" fill="#F1F3F6"/></g><g filter="url(#h)"><path d="m306.798 86.886 13.24-.029 13.24-.03 6.789 11.534 6.79 11.533-6.451 11.562-6.45 11.563-13.24.028-13.24.03-6.789-11.534-6.79-11.533 6.451-11.562 6.45-11.562Z" fill="#F1F3F6"/></g><g filter="url(#i)"><path d="m69.86 85.741 13.24-.028 13.24-.03 6.789 11.534 6.79 11.532-6.451 11.562-6.45 11.563-13.24.029-13.24.029-6.788-11.533-6.79-11.533 6.45-11.562 6.45-11.563Z" fill="#F1F3F6"/></g><g filter="url(#j)"><path d="m29.736 62.386 13.24-.029 13.24-.03 6.789 11.534 6.79 11.533-6.451 11.562-6.45 11.563-13.24.028-13.24.03-6.788-11.534-6.79-11.533 6.45-11.562 6.45-11.562Z" fill="#F1F3F6"/></g><g filter="url(#k)"><path d="m69.736 39.386 13.24-.029 13.24-.03 6.789 11.534 6.79 11.533-6.451 11.562-6.45 11.563-13.24.028-13.24.03-6.788-11.534-6.79-11.533 6.45-11.561 6.45-11.563Z" fill="#F1F3F6"/></g><g filter="url(#l)"><path d="m29.736 16.386 13.24-.029 13.24-.03 6.789 11.534 6.79 11.533-6.451 11.562-6.45 11.563-13.24.028-13.24.03-6.788-11.534-6.79-11.532 6.45-11.563 6.45-11.562Z" fill="#F1F3F6"/></g><g filter="url(#m)"><path d="m227.818 86.886 13.24-.029 13.24-.03 6.789 11.534 6.79 11.533-6.451 11.562-6.45 11.563-13.24.028-13.24.03-6.788-11.534-6.79-11.533 6.451-11.562 6.449-11.562Z" fill="#F1F3F6"/></g><g filter="url(#n)"><path d="m147.695 85.741 13.24-.028 13.24-.03 6.789 11.534 6.79 11.532-6.451 11.562-6.45 11.563-13.24.029-13.24.029-6.789-11.533-6.79-11.533 6.451-11.562 6.45-11.563Z" fill="#F1F3F6"/></g><g filter="url(#o)"><path d="m270.17 155.564 13.24-.029 13.24-.03 6.789 11.534 6.79 11.533-6.451 11.562-6.45 11.562-13.24.029-13.24.03-6.789-11.534-6.79-11.533 6.451-11.562 6.45-11.562Z" fill="#F1F3F6"/></g><g filter="url(#p)"><path d="m346.86 110.923 13.24-.029 13.24-.029 6.789 11.533 6.79 11.533-6.451 11.562-6.45 11.563-13.24.028-13.24.03-6.789-11.534-6.79-11.532 6.451-11.562 6.45-11.563Z" fill="#F1F3F6"/></g><defs><filter id="a" x="132.938" y="129.612" width="58.959" height="52.25" filterUnits="userSpaceOnUse" color-interpolation-filters="sRGB"><feFlood flood-opacity="0" result="BackgroundImageFix"/><feBlend in="SourceGraphic" in2="BackgroundImageFix" result="shape"/><feColorMatrix in="SourceAlpha" values="0 0 0 0 0 0 0 0 0 0 0 0 0 0 0 0 0 0 127 0" result="hardAlpha"/><feOffset dx="3" dy="3"/><feGaussianBlur stdDeviation="3.5"/><feComposite in2="hardAlpha" operator="arithmetic" k2="-1" k3="1"/><feColorMatrix values="0 0 0 0 0.215686 0 0 0 0 0.329412 0 0 0 0 0.666667 0 0 0 0.12 0"/><feBlend in2="shape" result="effect1_innerShadow_46_686"/><feColorMatrix in="SourceAlpha" values="0 0 0 0 0 0 0 0 0 0 0 0 0 0 0 0 0 0 127 0" result="hardAlpha"/><feOffset dx="-3" dy="-3"/><feGaussianBlur stdDeviation="3.5"/><feComposite in2="hardAlpha" operator="arithmetic" k2="-1" k3="1"/><feColorMatrix values="0 0 0 0 1 0 0 0 0 1 0 0 0 0 1 0 0 0 1 0"/><feBlend in2="effect1_innerShadow_46_686" result="effect2_innerShadow_46_686"/></filter><filter id="b" x="209.917" y="127.612" width="62.959" height="56.25" filterUnits="userSpaceOnUse" color-interpolation-filters="sRGB"><feFlood flood-opacity="0" result="BackgroundImageFix"/><feBlend in="SourceGraphic" in2="BackgroundImageFix" result="shape"/><feColorMatrix in="SourceAlpha" values="0 0 0 0 0 0 0 0 0 0 0 0 0 0 0 0 0 0 127 0" result="hardAlpha"/><feOffset dx="5" dy="5"/><feGaussianBlur stdDeviation="4"/><feComposite in2="hardAlpha" operator="arithmetic" k2="-1" k3="1"/><feColorMatrix values="0 0 0 0 0.215686 0 0 0 0 0.329412 0 0 0 0 0.666667 0 0 0 0.1 0"/><feBlend in2="shape" result="effect1_innerShadow_46_686"/><feColorMatrix in="SourceAlpha" values="0 0 0 0 0 0 0 0 0 0 0 0 0 0 0 0 0 0 127 0" result="hardAlpha"/><feOffset dx="-5" dy="-5"/><feGaussianBlur stdDeviation="4.5"/><feComposite in2="hardAlpha" operator="arithmetic" k2="-1" k3="1"/><feColorMatrix values="0 0 0 0 1 0 0 0 0 1 0 0 0 0 1 0 0 0 1 0"/><feBlend in2="effect1_innerShadow_46_686" result="effect2_innerShadow_46_686"/></filter><filter id="c" x="168.856" y="103.72" width="64.96" height="58.25" filterUnits="userSpaceOnUse" color-interpolation-filters="sRGB"><feFlood flood-opacity="0" result="BackgroundImageFix"/><feColorMatrix in="SourceAlpha" values="0 0 0 0 0 0 0 0 0 0 0 0 0 0 0 0 0 0 127 0" result="hardAlpha"/><feOffset dx="2" dy="2"/><feGaussianBlur stdDeviation="2"/><feColorMatrix values="0 0 0 0 0.215686 0 0 0 0 0.329412 0 0 0 0 0.666667 0 0 0 0.1 0"/><feBlend in2="BackgroundImageFix" result="effect1_dropShadow_46_686"/><feColorMatrix in="SourceAlpha" values="0 0 0 0 0 0 0 0 0 0 0 0 0 0 0 0 0 0 127 0" result="hardAlpha"/><feOffset dx="-2" dy="-2"/><feGaussianBlur stdDeviation="2"/><feColorMatrix values="0 0 0 0 1 0 0 0 0 1 0 0 0 0 1 0 0 0 1 0"/><feBlend in2="effect1_dropShadow_46_686" result="effect2_dropShadow_46_686"/><feBlend in="SourceGraphic" in2="effect2_dropShadow_46_686" result="shape"/></filter><filter id="d" x="90.835" y="56.327" width="64.96" height="58.25" filterUnits="userSpaceOnUse" color-interpolation-filters="sRGB"><feFlood flood-opacity="0" result="BackgroundImageFix"/><feColorMatrix in="SourceAlpha" values="0 0 0 0 0 0 0 0 0 0 0 0 0 0 0 0 0 0 127 0" result="hardAlpha"/><feOffset dx="2" dy="2"/><feGaussianBlur stdDeviation="2"/><feColorMatrix values="0 0 0 0 0.215686 0 0 0 0 0.329412 0 0 0 0 0.666667 0 0 0 0.1 0"/><feBlend in2="BackgroundImageFix" result="effect1_dropShadow_46_686"/><feColorMatrix in="SourceAlpha" values="0 0 0 0 0 0 0 0 0 0 0 0 0 0 0 0 0 0 127 0" result="hardAlpha"/><feOffset dx="-2" dy="-2"/><feGaussianBlur stdDeviation="2"/><feColorMatrix values="0 0 0 0 1 0 0 0 0 1 0 0 0 0 1 0 0 0 1 0"/><feBlend in2="effect1_dropShadow_46_686" result="effect2_dropShadow_46_686"/><feBlend in="SourceGraphic" in2="effect2_dropShadow_46_686" result="shape"/></filter><filter id="e" x="95.021" y="106.575" width="56.959" height="50.25" filterUnits="userSpaceOnUse" color-interpolation-filters="sRGB"><feFlood flood-opacity="0" result="BackgroundImageFix"/><feBlend in="SourceGraphic" in2="BackgroundImageFix" result="shape"/><feColorMatrix in="SourceAlpha" values="0 0 0 0 0 0 0 0 0 0 0 0 0 0 0 0 0 0 127 0" result="hardAlpha"/><feOffset dx="2" dy="2"/><feGaussianBlur stdDeviation="2"/><feComposite in2="hardAlpha" operator="arithmetic" k2="-1" k3="1"/><feColorMatrix values="0 0 0 0 0.215686 0 0 0 0 0.329412 0 0 0 0 0.666667 0 0 0 0.1 0"/><feBlend in2="shape" result="effect1_innerShadow_46_686"/><feColorMatrix in="SourceAlpha" values="0 0 0 0 0 0 0 0 0 0 0 0 0 0 0 0 0 0 127 0" result="hardAlpha"/><feOffset dx="-2" dy="-2"/><feGaussianBlur stdDeviation="2"/><feComposite in2="hardAlpha" operator="arithmetic" k2="-1" k3="1"/><feColorMatrix values="0 0 0 0 1 0 0 0 0 1 0 0 0 0 1 0 0 0 1 0"/><feBlend in2="effect1_innerShadow_46_686" result="effect2_innerShadow_46_686"/></filter><filter id="f" x="252.979" y="61.935" width="56.959" height="50.25" filterUnits="userSpaceOnUse" color-interpolation-filters="sRGB"><feFlood flood-opacity="0" result="BackgroundImageFix"/><feBlend in="SourceGraphic" in2="BackgroundImageFix" result="shape"/><feColorMatrix in="SourceAlpha" values="0 0 0 0 0 0 0 0 0 0 0 0 0 0 0 0 0 0 127 0" result="hardAlpha"/><feOffset dx="2" dy="2"/><feGaussianBlur stdDeviation="2"/><feComposite in2="hardAlpha" operator="arithmetic" k2="-1" k3="1"/><feColorMatrix values="0 0 0 0 0.215686 0 0 0 0 0.329412 0 0 0 0 0.666667 0 0 0 0.1 0"/><feBlend in2="shape" result="effect1_innerShadow_46_686"/><feColorMatrix in="SourceAlpha" values="0 0 0 0 0 0 0 0 0 0 0 0 0 0 0 0 0 0 127 0" result="hardAlpha"/><feOffset dx="-2" dy="-2"/><feGaussianBlur stdDeviation="2"/><feComposite in2="hardAlpha" operator="arithmetic" k2="-1" k3="1"/><feColorMatrix values="0 0 0 0 1 0 0 0 0 1 0 0 0 0 1 0 0 0 1 0"/><feBlend in2="effect1_innerShadow_46_686" result="effect2_innerShadow_46_686"/></filter><filter id="g" x="50.959" y="125.468" width="64.96" height="58.25" filterUnits="userSpaceOnUse" color-interpolation-filters="sRGB"><feFlood flood-opacity="0" result="BackgroundImageFix"/><feColorMatrix in="SourceAlpha" values="0 0 0 0 0 0 0 0 0 0 0 0 0 0 0 0 0 0 127 0" result="hardAlpha"/><feOffset dx="2" dy="2"/><feGaussianBlur stdDeviation="2"/><feColorMatrix values="0 0 0 0 0.215686 0 0 0 0 0.329412 0 0 0 0 0.666667 0 0 0 0.1 0"/><feBlend in2="BackgroundImageFix" result="effect1_dropShadow_46_686"/><feColorMatrix in="SourceAlpha" values="0 0 0 0 0 0 0 0 0 0 0 0 0 0 0 0 0 0 127 0" result="hardAlpha"/><feOffset dx="-2" dy="-2"/><feGaussianBlur stdDeviation="2"/><feColorMatrix values="0 0 0 0 1 0 0 0 0 1 0 0 0 0 1 0 0 0 1 0"/><feBlend in2="effect1_dropShadow_46_686" result="effect2_dropShadow_46_686"/><feBlend in="SourceGraphic" in2="effect2_dropShadow_46_686" result="shape"/></filter><filter id="h" x="287.897" y="80.827" width="64.96" height="58.25" filterUnits="userSpaceOnUse" color-interpolation-filters="sRGB"><feFlood flood-opacity="0" result="BackgroundImageFix"/><feColorMatrix in="SourceAlpha" values="0 0 0 0 0 0 0 0 0 0 0 0 0 0 0 0 0 0 127 0" result="hardAlpha"/><feOffset dx="2" dy="2"/><feGaussianBlur stdDeviation="2"/><feColorMatrix values="0 0 0 0 0.215686 0 0 0 0 0.329412 0 0 0 0 0.666667 0 0 0 0.1 0"/><feBlend in2="BackgroundImageFix" result="effect1_dropShadow_46_686"/><feColorMatrix in="SourceAlpha" values="0 0 0 0 0 0 0 0 0 0 0 0 0 0 0 0 0 0 127 0" result="hardAlpha"/><feOffset dx="-2" dy="-2"/><feGaussianBlur stdDeviation="2"/><feColorMatrix values="0 0 0 0 1 0 0 0 0 1 0 0 0 0 1 0 0 0 1 0"/><feBlend in2="effect1_dropShadow_46_686" result="effect2_dropShadow_46_686"/><feBlend in="SourceGraphic" in2="effect2_dropShadow_46_686" result="shape"/></filter><filter id="i" x="40.959" y="69.683" width="84.96" height="78.25" filterUnits="userSpaceOnUse" color-interpolation-filters="sRGB"><feFlood flood-opacity="0" result="BackgroundImageFix"/><feColorMatrix in="SourceAlpha" values="0 0 0 0 0 0 0 0 0 0 0 0 0 0 0 0 0 0 127 0" result="hardAlpha"/><feOffset dx="6" dy="6"/><feGaussianBlur stdDeviation="5"/><feColorMatrix values="0 0 0 0 0.215686 0 0 0 0 0.329412 0 0 0 0 0.666667 0 0 0 0.15 0"/><feBlend in2="BackgroundImageFix" result="effect1_dropShadow_46_686"/><feColorMatrix in="SourceAlpha" values="0 0 0 0 0 0 0 0 0 0 0 0 0 0 0 0 0 0 127 0" result="hardAlpha"/><feOffset dx="-6" dy="-6"/><feGaussianBlur stdDeviation="5"/><feColorMatrix values="0 0 0 0 1 0 0 0 0 1 0 0 0 0 1 0 0 0 1 0"/><feBlend in2="effect1_dropShadow_46_686" result="effect2_dropShadow_46_686"/><feBlend in="SourceGraphic" in2="effect2_dropShadow_46_686" result="shape"/></filter><filter id="j" x=".835" y="46.327" width="84.96" height="78.25" filterUnits="userSpaceOnUse" color-interpolation-filters="sRGB"><feFlood flood-opacity="0" result="BackgroundImageFix"/><feColorMatrix in="SourceAlpha" values="0 0 0 0 0 0 0 0 0 0 0 0 0 0 0 0 0 0 127 0" result="hardAlpha"/><feOffset dx="6" dy="6"/><feGaussianBlur stdDeviation="5"/><feColorMatrix values="0 0 0 0 0.215686 0 0 0 0 0.329412 0 0 0 0 0.666667 0 0 0 0.15 0"/><feBlend in2="BackgroundImageFix" result="effect1_dropShadow_46_686"/><feColorMatrix in="SourceAlpha" values="0 0 0 0 0 0 0 0 0 0 0 0 0 0 0 0 0 0 127 0" result="hardAlpha"/><feOffset dx="-6" dy="-6"/><feGaussianBlur stdDeviation="5"/><feColorMatrix values="0 0 0 0 1 0 0 0 0 1 0 0 0 0 1 0 0 0 1 0"/><feBlend in2="effect1_dropShadow_46_686" result="effect2_dropShadow_46_686"/><feBlend in="SourceGraphic" in2="effect2_dropShadow_46_686" result="shape"/></filter><filter id="k" x="40.835" y="23.327" width="84.96" height="78.25" filterUnits="userSpaceOnUse" color-interpolation-filters="sRGB"><feFlood flood-opacity="0" result="BackgroundImageFix"/><feColorMatrix in="SourceAlpha" values="0 0 0 0 0 0 0 0 0 0 0 0 0 0 0 0 0 0 127 0" result="hardAlpha"/><feOffset dx="6" dy="6"/><feGaussianBlur stdDeviation="5"/><feColorMatrix values="0 0 0 0 0.215686 0 0 0 0 0.329412 0 0 0 0 0.666667 0 0 0 0.15 0"/><feBlend in2="BackgroundImageFix" result="effect1_dropShadow_46_686"/><feColorMatrix in="SourceAlpha" values="0 0 0 0 0 0 0 0 0 0 0 0 0 0 0 0 0 0 127 0" result="hardAlpha"/><feOffset dx="-6" dy="-6"/><feGaussianBlur stdDeviation="5"/><feColorMatrix values="0 0 0 0 1 0 0 0 0 1 0 0 0 0 1 0 0 0 1 0"/><feBlend in2="effect1_dropShadow_46_686" result="effect2_dropShadow_46_686"/><feBlend in="SourceGraphic" in2="effect2_dropShadow_46_686" result="shape"/></filter><filter id="l" x=".835" y=".327" width="84.96" height="78.25" filterUnits="userSpaceOnUse" color-interpolation-filters="sRGB"><feFlood flood-opacity="0" result="BackgroundImageFix"/><feColorMatrix in="SourceAlpha" values="0 0 0 0 0 0 0 0 0 0 0 0 0 0 0 0 0 0 127 0" result="hardAlpha"/><feOffset dx="6" dy="6"/><feGaussianBlur stdDeviation="5"/><feColorMatrix values="0 0 0 0 0.215686 0 0 0 0 0.329412 0 0 0 0 0.666667 0 0 0 0.15 0"/><feBlend in2="BackgroundImageFix" result="effect1_dropShadow_46_686"/><feColorMatrix in="SourceAlpha" values="0 0 0 0 0 0 0 0 0 0 0 0 0 0 0 0 0 0 127 0" result="hardAlpha"/><feOffset dx="-6" dy="-6"/><feGaussianBlur stdDeviation="5"/><feColorMatrix values="0 0 0 0 1 0 0 0 0 1 0 0 0 0 1 0 0 0 1 0"/><feBlend in2="effect1_dropShadow_46_686" result="effect2_dropShadow_46_686"/><feBlend in="SourceGraphic" in2="effect2_dropShadow_46_686" result="shape"/></filter><filter id="m" x="198.917" y="70.827" width="84.96" height="78.25" filterUnits="userSpaceOnUse" color-interpolation-filters="sRGB"><feFlood flood-opacity="0" result="BackgroundImageFix"/><feColorMatrix in="SourceAlpha" values="0 0 0 0 0 0 0 0 0 0 0 0 0 0 0 0 0 0 127 0" result="hardAlpha"/><feOffset dx="6" dy="6"/><feGaussianBlur stdDeviation="5"/><feColorMatrix values="0 0 0 0 0.215686 0 0 0 0 0.329412 0 0 0 0 0.666667 0 0 0 0.15 0"/><feBlend in2="BackgroundImageFix" result="effect1_dropShadow_46_686"/><feColorMatrix in="SourceAlpha" values="0 0 0 0 0 0 0 0 0 0 0 0 0 0 0 0 0 0 127 0" result="hardAlpha"/><feOffset dx="-6" dy="-6"/><feGaussianBlur stdDeviation="5"/><feColorMatrix values="0 0 0 0 1 0 0 0 0 1 0 0 0 0 1 0 0 0 1 0"/><feBlend in2="effect1_dropShadow_46_686" result="effect2_dropShadow_46_686"/><feBlend in="SourceGraphic" in2="effect2_dropShadow_46_686" result="shape"/></filter><filter id="n" x="118.794" y="69.683" width="84.96" height="78.25" filterUnits="userSpaceOnUse" color-interpolation-filters="sRGB"><feFlood flood-opacity="0" result="BackgroundImageFix"/><feColorMatrix in="SourceAlpha" values="0 0 0 0 0 0 0 0 0 0 0 0 0 0 0 0 0 0 127 0" result="hardAlpha"/><feOffset dx="6" dy="6"/><feGaussianBlur stdDeviation="5"/><feColorMatrix values="0 0 0 0 0.215686 0 0 0 0 0.329412 0 0 0 0 0.666667 0 0 0 0.15 0"/><feBlend in2="BackgroundImageFix" result="effect1_dropShadow_46_686"/><feColorMatrix in="SourceAlpha" values="0 0 0 0 0 0 0 0 0 0 0 0 0 0 0 0 0 0 127 0" result="hardAlpha"/><feOffset dx="-6" dy="-6"/><feGaussianBlur stdDeviation="5"/><feColorMatrix values="0 0 0 0 1 0 0 0 0 1 0 0 0 0 1 0 0 0 1 0"/><feBlend in2="effect1_dropShadow_46_686" result="effect2_dropShadow_46_686"/><feBlend in="SourceGraphic" in2="effect2_dropShadow_46_686" result="shape"/></filter><filter id="o" x="241.269" y="139.505" width="84.96" height="78.25" filterUnits="userSpaceOnUse" color-interpolation-filters="sRGB"><feFlood flood-opacity="0" result="BackgroundImageFix"/><feColorMatrix in="SourceAlpha" values="0 0 0 0 0 0 0 0 0 0 0 0 0 0 0 0 0 0 127 0" result="hardAlpha"/><feOffset dx="6" dy="6"/><feGaussianBlur stdDeviation="5"/><feColorMatrix values="0 0 0 0 0.215686 0 0 0 0 0.329412 0 0 0 0 0.666667 0 0 0 0.15 0"/><feBlend in2="BackgroundImageFix" result="effect1_dropShadow_46_686"/><feColorMatrix in="SourceAlpha" values="0 0 0 0 0 0 0 0 0 0 0 0 0 0 0 0 0 0 127 0" result="hardAlpha"/><feOffset dx="-6" dy="-6"/><feGaussianBlur stdDeviation="5"/><feColorMatrix values="0 0 0 0 1 0 0 0 0 1 0 0 0 0 1 0 0 0 1 0"/><feBlend in2="effect1_dropShadow_46_686" result="effect2_dropShadow_46_686"/><feBlend in="SourceGraphic" in2="effect2_dropShadow_46_686" result="shape"/></filter><filter id="p" x="317.959" y="94.864" width="84.96" height="78.25" filterUnits="userSpaceOnUse" color-interpolation-filters="sRGB"><feFlood flood-opacity="0" result="BackgroundImageFix"/><feColorMatrix in="SourceAlpha" values="0 0 0 0 0 0 0 0 0 0 0 0 0 0 0 0 0 0 127 0" result="hardAlpha"/><feOffset dx="6" dy="6"/><feGaussianBlur stdDeviation="5"/><feColorMatrix values="0 0 0 0 0.215686 0 0 0 0 0.329412 0 0 0 0 0.666667 0 0 0 0.1 0"/><feBlend in2="BackgroundImageFix" result="effect1_dropShadow_46_686"/><feColorMatrix in="SourceAlpha" values="0 0 0 0 0 0 0 0 0 0 0 0 0 0 0 0 0 0 127 0" result="hardAlpha"/><feOffset dx="-6" dy="-6"/><feGaussianBlur stdDeviation="5"/><feColorMatrix values="0 0 0 0 1 0 0 0 0 1 0 0 0 0 1 0 0 0 1 0"/><feBlend in2="effect1_dropShadow_46_686" result="effect2_dropShadow_46_686"/><feBlend in="SourceGraphic" in2="effect2_dropShadow_46_686" result="shape"/></filter></defs></svg>