<svg width="435" height="248" fill="none" xmlns="http://www.w3.org/2000/svg"><g filter="url(#a)"><path d="m225.839 109.671 13.24-.028 13.24-.03 6.789 11.533 6.79 11.533-6.451 11.562-6.45 11.563-13.24.028-13.24.03-6.788-11.534-6.79-11.532 6.451-11.562 6.449-11.563Z" fill="#F1F3F6"/></g><g filter="url(#b)"><path d="m304.819 109.671 13.24-.028 13.239-.03 6.789 11.533 6.79 11.533-6.451 11.562-6.45 11.563-13.239.028-13.24.03-6.789-11.534-6.79-11.532 6.451-11.562 6.45-11.563Z" fill="#F1F3F6"/></g><g filter="url(#c)"><path d="m264.757 86.778 13.24-.028 13.239-.03 6.789 11.534 6.79 11.533-6.451 11.561-6.45 11.563-13.239.029-13.24.029-6.789-11.533-6.79-11.533 6.451-11.562 6.45-11.563Z" fill="#F1F3F6"/></g><g filter="url(#d)"><path d="m186.736 39.386 13.24-.029 13.24-.03 6.789 11.534 6.79 11.533-6.451 11.562-6.45 11.563-13.24.028-13.24.03-6.788-11.534-6.79-11.533 6.451-11.561 6.449-11.563Z" fill="#F1F3F6"/></g><g filter="url(#e)"><path d="m186.922 85.634 13.24-.029 13.24-.03 6.789 11.534 6.79 11.533-6.451 11.562-6.45 11.563-13.24.028-13.24.03-6.789-11.534-6.79-11.532 6.451-11.562 6.45-11.563Z" fill="#F1F3F6"/></g><g filter="url(#f)"><path d="m344.88 40.993 13.24-.028 13.24-.03 6.789 11.533 6.79 11.533-6.451 11.562-6.45 11.563-13.24.028-13.24.03-6.788-11.533-6.79-11.533 6.451-11.562 6.449-11.563Z" fill="#F1F3F6"/></g><g filter="url(#g)"><path d="m305.736 156.386 13.24-.029 13.24-.029 6.789 11.533 6.79 11.533-6.451 11.562-6.45 11.563-13.24.028-13.24.03-6.788-11.534-6.79-11.533 6.451-11.561 6.449-11.563Z" fill="#F1F3F6"/></g><g filter="url(#h)"><path d="m227.736 201.386 13.24-.029 13.24-.029 6.789 11.533 6.79 11.533-6.451 11.562-6.45 11.563-13.24.028-13.24.03-6.788-11.534-6.79-11.533 6.451-11.561 6.449-11.563Z" fill="#F1F3F6"/></g><g filter="url(#i)"><path d="m146.86 108.526 13.24-.028 13.24-.03 6.789 11.534 6.79 11.533-6.451 11.562-6.45 11.562-13.24.029-13.24.029-6.789-11.533-6.79-11.533 6.451-11.562 6.45-11.563Z" fill="#F1F3F6"/></g><g filter="url(#j)"><path d="m384.736 156.386 13.24-.029 13.24-.029 6.789 11.533 6.79 11.533-6.451 11.562-6.45 11.563-13.24.028-13.24.03-6.788-11.534-6.79-11.533 6.451-11.561 6.449-11.563Z" fill="#F1F3F6"/></g><g filter="url(#k)"><path d="m146.86 62.741 13.24-.028 13.24-.03 6.789 11.534 6.79 11.532-6.451 11.562-6.45 11.563-13.24.029-13.24.029-6.789-11.533-6.79-11.533 6.451-11.562 6.45-11.563Z" fill="#F1F3F6"/></g><g filter="url(#l)"><path d="m29.736 85.386 13.24-.029 13.24-.03 6.789 11.534 6.79 11.533-6.451 11.562-6.45 11.563-13.24.028-13.24.03-6.788-11.534-6.79-11.533 6.45-11.562 6.45-11.562Z" fill="#F1F3F6"/></g><g filter="url(#m)"><path d="m106.736 39.386 13.24-.029 13.24-.03 6.789 11.534 6.79 11.533-6.451 11.562-6.45 11.563-13.24.028-13.24.03-6.788-11.534-6.79-11.533 6.451-11.561 6.449-11.563Z" fill="#F1F3F6"/></g><g filter="url(#n)"><path d="m224.736 16.386 13.24-.029 13.24-.03 6.789 11.534 6.79 11.533-6.451 11.562-6.45 11.563-13.24.028-13.24.03-6.788-11.534-6.79-11.532 6.451-11.563 6.449-11.562Z" fill="#F1F3F6"/></g><g filter="url(#o)"><path d="m66.736 16.386 13.24-.029 13.24-.03 6.789 11.534 6.79 11.533-6.451 11.562-6.45 11.563-13.24.028-13.24.03-6.788-11.534-6.79-11.532 6.45-11.563 6.45-11.562Z" fill="#F1F3F6"/></g><g filter="url(#p)"><path d="m304.819 63.886 13.24-.029 13.239-.03 6.789 11.534 6.79 11.533-6.451 11.562-6.45 11.563-13.239.028-13.24.03-6.789-11.534-6.79-11.533 6.451-11.562 6.45-11.562Z" fill="#F1F3F6"/></g><g filter="url(#q)"><path d="m224.736 62.741 13.24-.028 13.24-.03 6.789 11.534 6.79 11.532-6.451 11.562-6.45 11.563-13.24.029-13.24.029-6.788-11.533-6.79-11.533 6.451-11.562 6.449-11.563Z" fill="#F1F3F6"/></g><g filter="url(#r)"><path d="m344.736 133.386 13.24-.029 13.24-.029 6.789 11.533 6.79 11.533-6.451 11.562-6.45 11.563-13.24.028-13.24.03-6.788-11.534-6.79-11.533 6.451-11.561 6.449-11.563Z" fill="#F1F3F6"/></g><g filter="url(#s)"><path d="m344.736 179.386 13.24-.029 13.24-.029 6.789 11.533 6.79 11.533-6.451 11.562-6.45 11.563-13.24.028-13.24.03-6.788-11.534-6.79-11.533 6.451-11.561 6.449-11.563Z" fill="#F1F3F6"/></g><defs><filter id="a" x="209.938" y="106.612" width="58.96" height="52.25" filterUnits="userSpaceOnUse" color-interpolation-filters="sRGB"><feFlood flood-opacity="0" result="BackgroundImageFix"/><feBlend in="SourceGraphic" in2="BackgroundImageFix" result="shape"/><feColorMatrix in="SourceAlpha" values="0 0 0 0 0 0 0 0 0 0 0 0 0 0 0 0 0 0 127 0" result="hardAlpha"/><feOffset dx="3" dy="3"/><feGaussianBlur stdDeviation="3.5"/><feComposite in2="hardAlpha" operator="arithmetic" k2="-1" k3="1"/><feColorMatrix values="0 0 0 0 0.215686 0 0 0 0 0.329412 0 0 0 0 0.666667 0 0 0 0.12 0"/><feBlend in2="shape" result="effect1_innerShadow_46_743"/><feColorMatrix in="SourceAlpha" values="0 0 0 0 0 0 0 0 0 0 0 0 0 0 0 0 0 0 127 0" result="hardAlpha"/><feOffset dx="-3" dy="-3"/><feGaussianBlur stdDeviation="3.5"/><feComposite in2="hardAlpha" operator="arithmetic" k2="-1" k3="1"/><feColorMatrix values="0 0 0 0 1 0 0 0 0 1 0 0 0 0 1 0 0 0 1 0"/><feBlend in2="effect1_innerShadow_46_743" result="effect2_innerShadow_46_743"/></filter><filter id="b" x="286.918" y="104.612" width="62.96" height="56.25" filterUnits="userSpaceOnUse" color-interpolation-filters="sRGB"><feFlood flood-opacity="0" result="BackgroundImageFix"/><feBlend in="SourceGraphic" in2="BackgroundImageFix" result="shape"/><feColorMatrix in="SourceAlpha" values="0 0 0 0 0 0 0 0 0 0 0 0 0 0 0 0 0 0 127 0" result="hardAlpha"/><feOffset dx="5" dy="5"/><feGaussianBlur stdDeviation="4"/><feComposite in2="hardAlpha" operator="arithmetic" k2="-1" k3="1"/><feColorMatrix values="0 0 0 0 0.215686 0 0 0 0 0.329412 0 0 0 0 0.666667 0 0 0 0.1 0"/><feBlend in2="shape" result="effect1_innerShadow_46_743"/><feColorMatrix in="SourceAlpha" values="0 0 0 0 0 0 0 0 0 0 0 0 0 0 0 0 0 0 127 0" result="hardAlpha"/><feOffset dx="-5" dy="-5"/><feGaussianBlur stdDeviation="4.5"/><feComposite in2="hardAlpha" operator="arithmetic" k2="-1" k3="1"/><feColorMatrix values="0 0 0 0 1 0 0 0 0 1 0 0 0 0 1 0 0 0 1 0"/><feBlend in2="effect1_innerShadow_46_743" result="effect2_innerShadow_46_743"/></filter><filter id="c" x="245.856" y="80.72" width="64.96" height="58.25" filterUnits="userSpaceOnUse" color-interpolation-filters="sRGB"><feFlood flood-opacity="0" result="BackgroundImageFix"/><feColorMatrix in="SourceAlpha" values="0 0 0 0 0 0 0 0 0 0 0 0 0 0 0 0 0 0 127 0" result="hardAlpha"/><feOffset dx="2" dy="2"/><feGaussianBlur stdDeviation="2"/><feColorMatrix values="0 0 0 0 0.215686 0 0 0 0 0.329412 0 0 0 0 0.666667 0 0 0 0.1 0"/><feBlend in2="BackgroundImageFix" result="effect1_dropShadow_46_743"/><feColorMatrix in="SourceAlpha" values="0 0 0 0 0 0 0 0 0 0 0 0 0 0 0 0 0 0 127 0" result="hardAlpha"/><feOffset dx="-2" dy="-2"/><feGaussianBlur stdDeviation="2"/><feColorMatrix values="0 0 0 0 1 0 0 0 0 1 0 0 0 0 1 0 0 0 1 0"/><feBlend in2="effect1_dropShadow_46_743" result="effect2_dropShadow_46_743"/><feBlend in="SourceGraphic" in2="effect2_dropShadow_46_743" result="shape"/></filter><filter id="d" x="167.835" y="33.327" width="64.96" height="58.25" filterUnits="userSpaceOnUse" color-interpolation-filters="sRGB"><feFlood flood-opacity="0" result="BackgroundImageFix"/><feColorMatrix in="SourceAlpha" values="0 0 0 0 0 0 0 0 0 0 0 0 0 0 0 0 0 0 127 0" result="hardAlpha"/><feOffset dx="2" dy="2"/><feGaussianBlur stdDeviation="2"/><feColorMatrix values="0 0 0 0 0.215686 0 0 0 0 0.329412 0 0 0 0 0.666667 0 0 0 0.1 0"/><feBlend in2="BackgroundImageFix" result="effect1_dropShadow_46_743"/><feColorMatrix in="SourceAlpha" values="0 0 0 0 0 0 0 0 0 0 0 0 0 0 0 0 0 0 127 0" result="hardAlpha"/><feOffset dx="-2" dy="-2"/><feGaussianBlur stdDeviation="2"/><feColorMatrix values="0 0 0 0 1 0 0 0 0 1 0 0 0 0 1 0 0 0 1 0"/><feBlend in2="effect1_dropShadow_46_743" result="effect2_dropShadow_46_743"/><feBlend in="SourceGraphic" in2="effect2_dropShadow_46_743" result="shape"/></filter><filter id="e" x="172.021" y="83.575" width="56.96" height="50.25" filterUnits="userSpaceOnUse" color-interpolation-filters="sRGB"><feFlood flood-opacity="0" result="BackgroundImageFix"/><feBlend in="SourceGraphic" in2="BackgroundImageFix" result="shape"/><feColorMatrix in="SourceAlpha" values="0 0 0 0 0 0 0 0 0 0 0 0 0 0 0 0 0 0 127 0" result="hardAlpha"/><feOffset dx="2" dy="2"/><feGaussianBlur stdDeviation="2"/><feComposite in2="hardAlpha" operator="arithmetic" k2="-1" k3="1"/><feColorMatrix values="0 0 0 0 0.215686 0 0 0 0 0.329412 0 0 0 0 0.666667 0 0 0 0.1 0"/><feBlend in2="shape" result="effect1_innerShadow_46_743"/><feColorMatrix in="SourceAlpha" values="0 0 0 0 0 0 0 0 0 0 0 0 0 0 0 0 0 0 127 0" result="hardAlpha"/><feOffset dx="-2" dy="-2"/><feGaussianBlur stdDeviation="2"/><feComposite in2="hardAlpha" operator="arithmetic" k2="-1" k3="1"/><feColorMatrix values="0 0 0 0 1 0 0 0 0 1 0 0 0 0 1 0 0 0 1 0"/><feBlend in2="effect1_innerShadow_46_743" result="effect2_innerShadow_46_743"/></filter><filter id="f" x="329.979" y="38.935" width="56.96" height="50.25" filterUnits="userSpaceOnUse" color-interpolation-filters="sRGB"><feFlood flood-opacity="0" result="BackgroundImageFix"/><feBlend in="SourceGraphic" in2="BackgroundImageFix" result="shape"/><feColorMatrix in="SourceAlpha" values="0 0 0 0 0 0 0 0 0 0 0 0 0 0 0 0 0 0 127 0" result="hardAlpha"/><feOffset dx="2" dy="2"/><feGaussianBlur stdDeviation="2"/><feComposite in2="hardAlpha" operator="arithmetic" k2="-1" k3="1"/><feColorMatrix values="0 0 0 0 0.215686 0 0 0 0 0.329412 0 0 0 0 0.666667 0 0 0 0.1 0"/><feBlend in2="shape" result="effect1_innerShadow_46_743"/><feColorMatrix in="SourceAlpha" values="0 0 0 0 0 0 0 0 0 0 0 0 0 0 0 0 0 0 127 0" result="hardAlpha"/><feOffset dx="-2" dy="-2"/><feGaussianBlur stdDeviation="2"/><feComposite in2="hardAlpha" operator="arithmetic" k2="-1" k3="1"/><feColorMatrix values="0 0 0 0 1 0 0 0 0 1 0 0 0 0 1 0 0 0 1 0"/><feBlend in2="effect1_innerShadow_46_743" result="effect2_innerShadow_46_743"/></filter><filter id="g" x="290.835" y="154.327" width="56.96" height="50.25" filterUnits="userSpaceOnUse" color-interpolation-filters="sRGB"><feFlood flood-opacity="0" result="BackgroundImageFix"/><feBlend in="SourceGraphic" in2="BackgroundImageFix" result="shape"/><feColorMatrix in="SourceAlpha" values="0 0 0 0 0 0 0 0 0 0 0 0 0 0 0 0 0 0 127 0" result="hardAlpha"/><feOffset dx="2" dy="2"/><feGaussianBlur stdDeviation="2"/><feComposite in2="hardAlpha" operator="arithmetic" k2="-1" k3="1"/><feColorMatrix values="0 0 0 0 0.215686 0 0 0 0 0.329412 0 0 0 0 0.666667 0 0 0 0.1 0"/><feBlend in2="shape" result="effect1_innerShadow_46_743"/><feColorMatrix in="SourceAlpha" values="0 0 0 0 0 0 0 0 0 0 0 0 0 0 0 0 0 0 127 0" result="hardAlpha"/><feOffset dx="-2" dy="-2"/><feGaussianBlur stdDeviation="2"/><feComposite in2="hardAlpha" operator="arithmetic" k2="-1" k3="1"/><feColorMatrix values="0 0 0 0 1 0 0 0 0 1 0 0 0 0 1 0 0 0 1 0"/><feBlend in2="effect1_innerShadow_46_743" result="effect2_innerShadow_46_743"/></filter><filter id="h" x="212.835" y="199.327" width="56.96" height="50.25" filterUnits="userSpaceOnUse" color-interpolation-filters="sRGB"><feFlood flood-opacity="0" result="BackgroundImageFix"/><feBlend in="SourceGraphic" in2="BackgroundImageFix" result="shape"/><feColorMatrix in="SourceAlpha" values="0 0 0 0 0 0 0 0 0 0 0 0 0 0 0 0 0 0 127 0" result="hardAlpha"/><feOffset dx="2" dy="2"/><feGaussianBlur stdDeviation="2"/><feComposite in2="hardAlpha" operator="arithmetic" k2="-1" k3="1"/><feColorMatrix values="0 0 0 0 0.215686 0 0 0 0 0.329412 0 0 0 0 0.666667 0 0 0 0.1 0"/><feBlend in2="shape" result="effect1_innerShadow_46_743"/><feColorMatrix in="SourceAlpha" values="0 0 0 0 0 0 0 0 0 0 0 0 0 0 0 0 0 0 127 0" result="hardAlpha"/><feOffset dx="-2" dy="-2"/><feGaussianBlur stdDeviation="2"/><feComposite in2="hardAlpha" operator="arithmetic" k2="-1" k3="1"/><feColorMatrix values="0 0 0 0 1 0 0 0 0 1 0 0 0 0 1 0 0 0 1 0"/><feBlend in2="effect1_innerShadow_46_743" result="effect2_innerShadow_46_743"/></filter><filter id="i" x="127.959" y="102.468" width="64.96" height="58.25" filterUnits="userSpaceOnUse" color-interpolation-filters="sRGB"><feFlood flood-opacity="0" result="BackgroundImageFix"/><feColorMatrix in="SourceAlpha" values="0 0 0 0 0 0 0 0 0 0 0 0 0 0 0 0 0 0 127 0" result="hardAlpha"/><feOffset dx="2" dy="2"/><feGaussianBlur stdDeviation="2"/><feColorMatrix values="0 0 0 0 0.215686 0 0 0 0 0.329412 0 0 0 0 0.666667 0 0 0 0.1 0"/><feBlend in2="BackgroundImageFix" result="effect1_dropShadow_46_743"/><feColorMatrix in="SourceAlpha" values="0 0 0 0 0 0 0 0 0 0 0 0 0 0 0 0 0 0 127 0" result="hardAlpha"/><feOffset dx="-2" dy="-2"/><feGaussianBlur stdDeviation="2"/><feColorMatrix values="0 0 0 0 1 0 0 0 0 1 0 0 0 0 1 0 0 0 1 0"/><feBlend in2="effect1_dropShadow_46_743" result="effect2_dropShadow_46_743"/><feBlend in="SourceGraphic" in2="effect2_dropShadow_46_743" result="shape"/></filter><filter id="j" x="365.835" y="150.327" width="64.96" height="58.25" filterUnits="userSpaceOnUse" color-interpolation-filters="sRGB"><feFlood flood-opacity="0" result="BackgroundImageFix"/><feColorMatrix in="SourceAlpha" values="0 0 0 0 0 0 0 0 0 0 0 0 0 0 0 0 0 0 127 0" result="hardAlpha"/><feOffset dx="2" dy="2"/><feGaussianBlur stdDeviation="2"/><feColorMatrix values="0 0 0 0 0.215686 0 0 0 0 0.329412 0 0 0 0 0.666667 0 0 0 0.1 0"/><feBlend in2="BackgroundImageFix" result="effect1_dropShadow_46_743"/><feColorMatrix in="SourceAlpha" values="0 0 0 0 0 0 0 0 0 0 0 0 0 0 0 0 0 0 127 0" result="hardAlpha"/><feOffset dx="-2" dy="-2"/><feGaussianBlur stdDeviation="2"/><feColorMatrix values="0 0 0 0 1 0 0 0 0 1 0 0 0 0 1 0 0 0 1 0"/><feBlend in2="effect1_dropShadow_46_743" result="effect2_dropShadow_46_743"/><feBlend in="SourceGraphic" in2="effect2_dropShadow_46_743" result="shape"/></filter><filter id="k" x="117.959" y="46.683" width="84.96" height="78.25" filterUnits="userSpaceOnUse" color-interpolation-filters="sRGB"><feFlood flood-opacity="0" result="BackgroundImageFix"/><feColorMatrix in="SourceAlpha" values="0 0 0 0 0 0 0 0 0 0 0 0 0 0 0 0 0 0 127 0" result="hardAlpha"/><feOffset dx="6" dy="6"/><feGaussianBlur stdDeviation="5"/><feColorMatrix values="0 0 0 0 0.215686 0 0 0 0 0.329412 0 0 0 0 0.666667 0 0 0 0.15 0"/><feBlend in2="BackgroundImageFix" result="effect1_dropShadow_46_743"/><feColorMatrix in="SourceAlpha" values="0 0 0 0 0 0 0 0 0 0 0 0 0 0 0 0 0 0 127 0" result="hardAlpha"/><feOffset dx="-6" dy="-6"/><feGaussianBlur stdDeviation="5"/><feColorMatrix values="0 0 0 0 1 0 0 0 0 1 0 0 0 0 1 0 0 0 1 0"/><feBlend in2="effect1_dropShadow_46_743" result="effect2_dropShadow_46_743"/><feBlend in="SourceGraphic" in2="effect2_dropShadow_46_743" result="shape"/></filter><filter id="l" x=".835" y="69.327" width="84.96" height="78.25" filterUnits="userSpaceOnUse" color-interpolation-filters="sRGB"><feFlood flood-opacity="0" result="BackgroundImageFix"/><feColorMatrix in="SourceAlpha" values="0 0 0 0 0 0 0 0 0 0 0 0 0 0 0 0 0 0 127 0" result="hardAlpha"/><feOffset dx="6" dy="6"/><feGaussianBlur stdDeviation="5"/><feColorMatrix values="0 0 0 0 0.215686 0 0 0 0 0.329412 0 0 0 0 0.666667 0 0 0 0.15 0"/><feBlend in2="BackgroundImageFix" result="effect1_dropShadow_46_743"/><feColorMatrix in="SourceAlpha" values="0 0 0 0 0 0 0 0 0 0 0 0 0 0 0 0 0 0 127 0" result="hardAlpha"/><feOffset dx="-6" dy="-6"/><feGaussianBlur stdDeviation="5"/><feColorMatrix values="0 0 0 0 1 0 0 0 0 1 0 0 0 0 1 0 0 0 1 0"/><feBlend in2="effect1_dropShadow_46_743" result="effect2_dropShadow_46_743"/><feBlend in="SourceGraphic" in2="effect2_dropShadow_46_743" result="shape"/></filter><filter id="m" x="77.835" y="23.327" width="84.96" height="78.25" filterUnits="userSpaceOnUse" color-interpolation-filters="sRGB"><feFlood flood-opacity="0" result="BackgroundImageFix"/><feColorMatrix in="SourceAlpha" values="0 0 0 0 0 0 0 0 0 0 0 0 0 0 0 0 0 0 127 0" result="hardAlpha"/><feOffset dx="6" dy="6"/><feGaussianBlur stdDeviation="5"/><feColorMatrix values="0 0 0 0 0.215686 0 0 0 0 0.329412 0 0 0 0 0.666667 0 0 0 0.15 0"/><feBlend in2="BackgroundImageFix" result="effect1_dropShadow_46_743"/><feColorMatrix in="SourceAlpha" values="0 0 0 0 0 0 0 0 0 0 0 0 0 0 0 0 0 0 127 0" result="hardAlpha"/><feOffset dx="-6" dy="-6"/><feGaussianBlur stdDeviation="5"/><feColorMatrix values="0 0 0 0 1 0 0 0 0 1 0 0 0 0 1 0 0 0 1 0"/><feBlend in2="effect1_dropShadow_46_743" result="effect2_dropShadow_46_743"/><feBlend in="SourceGraphic" in2="effect2_dropShadow_46_743" result="shape"/></filter><filter id="n" x="195.835" y=".327" width="84.96" height="78.25" filterUnits="userSpaceOnUse" color-interpolation-filters="sRGB"><feFlood flood-opacity="0" result="BackgroundImageFix"/><feColorMatrix in="SourceAlpha" values="0 0 0 0 0 0 0 0 0 0 0 0 0 0 0 0 0 0 127 0" result="hardAlpha"/><feOffset dx="6" dy="6"/><feGaussianBlur stdDeviation="5"/><feColorMatrix values="0 0 0 0 0.215686 0 0 0 0 0.329412 0 0 0 0 0.666667 0 0 0 0.15 0"/><feBlend in2="BackgroundImageFix" result="effect1_dropShadow_46_743"/><feColorMatrix in="SourceAlpha" values="0 0 0 0 0 0 0 0 0 0 0 0 0 0 0 0 0 0 127 0" result="hardAlpha"/><feOffset dx="-6" dy="-6"/><feGaussianBlur stdDeviation="5"/><feColorMatrix values="0 0 0 0 1 0 0 0 0 1 0 0 0 0 1 0 0 0 1 0"/><feBlend in2="effect1_dropShadow_46_743" result="effect2_dropShadow_46_743"/><feBlend in="SourceGraphic" in2="effect2_dropShadow_46_743" result="shape"/></filter><filter id="o" x="37.835" y=".327" width="84.96" height="78.25" filterUnits="userSpaceOnUse" color-interpolation-filters="sRGB"><feFlood flood-opacity="0" result="BackgroundImageFix"/><feColorMatrix in="SourceAlpha" values="0 0 0 0 0 0 0 0 0 0 0 0 0 0 0 0 0 0 127 0" result="hardAlpha"/><feOffset dx="6" dy="6"/><feGaussianBlur stdDeviation="5"/><feColorMatrix values="0 0 0 0 0.215686 0 0 0 0 0.329412 0 0 0 0 0.666667 0 0 0 0.15 0"/><feBlend in2="BackgroundImageFix" result="effect1_dropShadow_46_743"/><feColorMatrix in="SourceAlpha" values="0 0 0 0 0 0 0 0 0 0 0 0 0 0 0 0 0 0 127 0" result="hardAlpha"/><feOffset dx="-6" dy="-6"/><feGaussianBlur stdDeviation="5"/><feColorMatrix values="0 0 0 0 1 0 0 0 0 1 0 0 0 0 1 0 0 0 1 0"/><feBlend in2="effect1_dropShadow_46_743" result="effect2_dropShadow_46_743"/><feBlend in="SourceGraphic" in2="effect2_dropShadow_46_743" result="shape"/></filter><filter id="p" x="275.918" y="47.827" width="84.96" height="78.25" filterUnits="userSpaceOnUse" color-interpolation-filters="sRGB"><feFlood flood-opacity="0" result="BackgroundImageFix"/><feColorMatrix in="SourceAlpha" values="0 0 0 0 0 0 0 0 0 0 0 0 0 0 0 0 0 0 127 0" result="hardAlpha"/><feOffset dx="6" dy="6"/><feGaussianBlur stdDeviation="5"/><feColorMatrix values="0 0 0 0 0.215686 0 0 0 0 0.329412 0 0 0 0 0.666667 0 0 0 0.15 0"/><feBlend in2="BackgroundImageFix" result="effect1_dropShadow_46_743"/><feColorMatrix in="SourceAlpha" values="0 0 0 0 0 0 0 0 0 0 0 0 0 0 0 0 0 0 127 0" result="hardAlpha"/><feOffset dx="-6" dy="-6"/><feGaussianBlur stdDeviation="5"/><feColorMatrix values="0 0 0 0 1 0 0 0 0 1 0 0 0 0 1 0 0 0 1 0"/><feBlend in2="effect1_dropShadow_46_743" result="effect2_dropShadow_46_743"/><feBlend in="SourceGraphic" in2="effect2_dropShadow_46_743" result="shape"/></filter><filter id="q" x="195.835" y="46.683" width="84.96" height="78.25" filterUnits="userSpaceOnUse" color-interpolation-filters="sRGB"><feFlood flood-opacity="0" result="BackgroundImageFix"/><feColorMatrix in="SourceAlpha" values="0 0 0 0 0 0 0 0 0 0 0 0 0 0 0 0 0 0 127 0" result="hardAlpha"/><feOffset dx="6" dy="6"/><feGaussianBlur stdDeviation="5"/><feColorMatrix values="0 0 0 0 0.215686 0 0 0 0 0.329412 0 0 0 0 0.666667 0 0 0 0.15 0"/><feBlend in2="BackgroundImageFix" result="effect1_dropShadow_46_743"/><feColorMatrix in="SourceAlpha" values="0 0 0 0 0 0 0 0 0 0 0 0 0 0 0 0 0 0 127 0" result="hardAlpha"/><feOffset dx="-6" dy="-6"/><feGaussianBlur stdDeviation="5"/><feColorMatrix values="0 0 0 0 1 0 0 0 0 1 0 0 0 0 1 0 0 0 1 0"/><feBlend in2="effect1_dropShadow_46_743" result="effect2_dropShadow_46_743"/><feBlend in="SourceGraphic" in2="effect2_dropShadow_46_743" result="shape"/></filter><filter id="r" x="315.835" y="117.327" width="84.96" height="78.25" filterUnits="userSpaceOnUse" color-interpolation-filters="sRGB"><feFlood flood-opacity="0" result="BackgroundImageFix"/><feColorMatrix in="SourceAlpha" values="0 0 0 0 0 0 0 0 0 0 0 0 0 0 0 0 0 0 127 0" result="hardAlpha"/><feOffset dx="6" dy="6"/><feGaussianBlur stdDeviation="5"/><feColorMatrix values="0 0 0 0 0.215686 0 0 0 0 0.329412 0 0 0 0 0.666667 0 0 0 0.15 0"/><feBlend in2="BackgroundImageFix" result="effect1_dropShadow_46_743"/><feColorMatrix in="SourceAlpha" values="0 0 0 0 0 0 0 0 0 0 0 0 0 0 0 0 0 0 127 0" result="hardAlpha"/><feOffset dx="-6" dy="-6"/><feGaussianBlur stdDeviation="5"/><feColorMatrix values="0 0 0 0 1 0 0 0 0 1 0 0 0 0 1 0 0 0 1 0"/><feBlend in2="effect1_dropShadow_46_743" result="effect2_dropShadow_46_743"/><feBlend in="SourceGraphic" in2="effect2_dropShadow_46_743" result="shape"/></filter><filter id="s" x="315.835" y="163.327" width="84.96" height="78.25" filterUnits="userSpaceOnUse" color-interpolation-filters="sRGB"><feFlood flood-opacity="0" result="BackgroundImageFix"/><feColorMatrix in="SourceAlpha" values="0 0 0 0 0 0 0 0 0 0 0 0 0 0 0 0 0 0 127 0" result="hardAlpha"/><feOffset dx="6" dy="6"/><feGaussianBlur stdDeviation="5"/><feColorMatrix values="0 0 0 0 0.215686 0 0 0 0 0.329412 0 0 0 0 0.666667 0 0 0 0.1 0"/><feBlend in2="BackgroundImageFix" result="effect1_dropShadow_46_743"/><feColorMatrix in="SourceAlpha" values="0 0 0 0 0 0 0 0 0 0 0 0 0 0 0 0 0 0 127 0" result="hardAlpha"/><feOffset dx="-6" dy="-6"/><feGaussianBlur stdDeviation="5"/><feColorMatrix values="0 0 0 0 1 0 0 0 0 1 0 0 0 0 1 0 0 0 1 0"/><feBlend in2="effect1_dropShadow_46_743" result="effect2_dropShadow_46_743"/><feBlend in="SourceGraphic" in2="effect2_dropShadow_46_743" result="shape"/></filter></defs></svg>