<svg width="379" height="211" fill="none" xmlns="http://www.w3.org/2000/svg"><g filter="url(#a)"><path d="m205.818 125.67 13.24-.028 13.24-.03 6.789 11.533 6.79 11.533-6.451 11.562-6.45 11.563-13.24.028-13.24.03-6.788-11.533-6.79-11.533 6.451-11.562 6.449-11.563Z" fill="#F1F3F6"/></g><g filter="url(#b)"><path d="m165.757 102.777 13.24-.028 13.24-.03 6.789 11.534 6.79 11.533-6.451 11.562-6.45 11.562-13.24.029-13.24.029-6.789-11.533-6.79-11.533 6.451-11.562 6.45-11.563Z" fill="#F1F3F6"/></g><g filter="url(#c)"><path d="m89.736 148.385 13.24-.029 13.24-.029 6.789 11.533 6.79 11.533-6.451 11.562-6.45 11.563-13.24.028-13.24.03-6.788-11.534-6.79-11.532 6.45-11.562 6.45-11.563Z" fill="#F1F3F6"/></g><g filter="url(#d)"><path d="m205.818 34.1 13.24-.029 13.24-.03 6.789 11.534 6.79 11.533-6.451 11.562-6.45 11.562-13.24.029-13.24.03-6.788-11.534-6.79-11.533 6.451-11.562 6.449-11.562Z" fill="#F1F3F6"/></g><g filter="url(#e)"><path d="m245.88 56.992 13.24-.028 13.24-.03 6.789 11.534L285.939 80l-6.451 11.562-6.45 11.563-13.24.028-13.24.03-6.788-11.533-6.79-11.533 6.451-11.562 6.449-11.563Z" fill="#F1F3F6"/></g><g filter="url(#f)"><path d="m324.86 56.992 13.24-.028 13.24-.03 6.789 11.534L364.919 80l-6.451 11.562-6.45 11.563-13.24.028-13.24.03-6.789-11.533-6.79-11.533 6.451-11.562 6.45-11.563Z" fill="#F1F3F6"/></g><g filter="url(#g)"><path d="m284.798 79.885 13.24-.029 13.24-.03 6.789 11.534 6.79 11.533-6.451 11.562-6.45 11.563-13.24.028-13.24.03-6.789-11.534-6.79-11.532 6.451-11.563 6.45-11.562Z" fill="#F1F3F6"/></g><g filter="url(#h)"><path d="m326.736 11.385 13.24-.029 13.24-.03 6.789 11.534 6.79 11.533-6.451 11.562-6.45 11.563-13.24.028-13.24.03-6.788-11.534-6.79-11.532 6.451-11.562 6.449-11.563Z" fill="#F1F3F6"/></g><g filter="url(#i)"><path d="m205.818 79.885 13.24-.029 13.24-.03 6.789 11.534 6.79 11.533-6.451 11.562-6.45 11.563-13.24.028-13.24.03-6.788-11.534-6.79-11.532 6.451-11.563 6.449-11.562Z" fill="#F1F3F6"/></g><g filter="url(#j)"><path d="m248.17 148.563 13.24-.029 13.24-.03 6.789 11.534 6.79 11.533-6.451 11.562-6.45 11.562-13.24.029-13.24.03-6.789-11.534-6.79-11.533 6.451-11.562 6.45-11.562Z" fill="#F1F3F6"/></g><defs><filter id="a" x="187.917" y="120.611" width="62.959" height="56.25" filterUnits="userSpaceOnUse" color-interpolation-filters="sRGB"><feFlood flood-opacity="0" result="BackgroundImageFix"/><feBlend in="SourceGraphic" in2="BackgroundImageFix" result="shape"/><feColorMatrix in="SourceAlpha" values="0 0 0 0 0 0 0 0 0 0 0 0 0 0 0 0 0 0 127 0" result="hardAlpha"/><feOffset dx="5" dy="5"/><feGaussianBlur stdDeviation="4"/><feComposite in2="hardAlpha" operator="arithmetic" k2="-1" k3="1"/><feColorMatrix values="0 0 0 0 0.215686 0 0 0 0 0.329412 0 0 0 0 0.666667 0 0 0 0.1 0"/><feBlend in2="shape" result="effect1_innerShadow_46_812"/><feColorMatrix in="SourceAlpha" values="0 0 0 0 0 0 0 0 0 0 0 0 0 0 0 0 0 0 127 0" result="hardAlpha"/><feOffset dx="-5" dy="-5"/><feGaussianBlur stdDeviation="4.5"/><feComposite in2="hardAlpha" operator="arithmetic" k2="-1" k3="1"/><feColorMatrix values="0 0 0 0 1 0 0 0 0 1 0 0 0 0 1 0 0 0 1 0"/><feBlend in2="effect1_innerShadow_46_812" result="effect2_innerShadow_46_812"/></filter><filter id="b" x="146.856" y="96.719" width="64.96" height="58.25" filterUnits="userSpaceOnUse" color-interpolation-filters="sRGB"><feFlood flood-opacity="0" result="BackgroundImageFix"/><feColorMatrix in="SourceAlpha" values="0 0 0 0 0 0 0 0 0 0 0 0 0 0 0 0 0 0 127 0" result="hardAlpha"/><feOffset dx="2" dy="2"/><feGaussianBlur stdDeviation="2"/><feColorMatrix values="0 0 0 0 0.215686 0 0 0 0 0.329412 0 0 0 0 0.666667 0 0 0 0.1 0"/><feBlend in2="BackgroundImageFix" result="effect1_dropShadow_46_812"/><feColorMatrix in="SourceAlpha" values="0 0 0 0 0 0 0 0 0 0 0 0 0 0 0 0 0 0 127 0" result="hardAlpha"/><feOffset dx="-2" dy="-2"/><feGaussianBlur stdDeviation="2"/><feColorMatrix values="0 0 0 0 1 0 0 0 0 1 0 0 0 0 1 0 0 0 1 0"/><feBlend in2="effect1_dropShadow_46_812" result="effect2_dropShadow_46_812"/><feBlend in="SourceGraphic" in2="effect2_dropShadow_46_812" result="shape"/></filter><filter id="c" x="70.835" y="142.326" width="64.96" height="58.25" filterUnits="userSpaceOnUse" color-interpolation-filters="sRGB"><feFlood flood-opacity="0" result="BackgroundImageFix"/><feColorMatrix in="SourceAlpha" values="0 0 0 0 0 0 0 0 0 0 0 0 0 0 0 0 0 0 127 0" result="hardAlpha"/><feOffset dx="2" dy="2"/><feGaussianBlur stdDeviation="2"/><feColorMatrix values="0 0 0 0 0.215686 0 0 0 0 0.329412 0 0 0 0 0.666667 0 0 0 0.1 0"/><feBlend in2="BackgroundImageFix" result="effect1_dropShadow_46_812"/><feColorMatrix in="SourceAlpha" values="0 0 0 0 0 0 0 0 0 0 0 0 0 0 0 0 0 0 127 0" result="hardAlpha"/><feOffset dx="-2" dy="-2"/><feGaussianBlur stdDeviation="2"/><feColorMatrix values="0 0 0 0 1 0 0 0 0 1 0 0 0 0 1 0 0 0 1 0"/><feBlend in2="effect1_dropShadow_46_812" result="effect2_dropShadow_46_812"/><feBlend in="SourceGraphic" in2="effect2_dropShadow_46_812" result="shape"/></filter><filter id="d" x="186.917" y="28.041" width="64.96" height="58.25" filterUnits="userSpaceOnUse" color-interpolation-filters="sRGB"><feFlood flood-opacity="0" result="BackgroundImageFix"/><feColorMatrix in="SourceAlpha" values="0 0 0 0 0 0 0 0 0 0 0 0 0 0 0 0 0 0 127 0" result="hardAlpha"/><feOffset dx="2" dy="2"/><feGaussianBlur stdDeviation="2"/><feColorMatrix values="0 0 0 0 0.215686 0 0 0 0 0.329412 0 0 0 0 0.666667 0 0 0 0.1 0"/><feBlend in2="BackgroundImageFix" result="effect1_dropShadow_46_812"/><feColorMatrix in="SourceAlpha" values="0 0 0 0 0 0 0 0 0 0 0 0 0 0 0 0 0 0 127 0" result="hardAlpha"/><feOffset dx="-2" dy="-2"/><feGaussianBlur stdDeviation="2"/><feColorMatrix values="0 0 0 0 1 0 0 0 0 1 0 0 0 0 1 0 0 0 1 0"/><feBlend in2="effect1_dropShadow_46_812" result="effect2_dropShadow_46_812"/><feBlend in="SourceGraphic" in2="effect2_dropShadow_46_812" result="shape"/></filter><filter id="e" x="230.979" y="54.934" width="56.959" height="50.25" filterUnits="userSpaceOnUse" color-interpolation-filters="sRGB"><feFlood flood-opacity="0" result="BackgroundImageFix"/><feBlend in="SourceGraphic" in2="BackgroundImageFix" result="shape"/><feColorMatrix in="SourceAlpha" values="0 0 0 0 0 0 0 0 0 0 0 0 0 0 0 0 0 0 127 0" result="hardAlpha"/><feOffset dx="2" dy="2"/><feGaussianBlur stdDeviation="2"/><feComposite in2="hardAlpha" operator="arithmetic" k2="-1" k3="1"/><feColorMatrix values="0 0 0 0 0.215686 0 0 0 0 0.329412 0 0 0 0 0.666667 0 0 0 0.1 0"/><feBlend in2="shape" result="effect1_innerShadow_46_812"/><feColorMatrix in="SourceAlpha" values="0 0 0 0 0 0 0 0 0 0 0 0 0 0 0 0 0 0 127 0" result="hardAlpha"/><feOffset dx="-2" dy="-2"/><feGaussianBlur stdDeviation="2"/><feComposite in2="hardAlpha" operator="arithmetic" k2="-1" k3="1"/><feColorMatrix values="0 0 0 0 1 0 0 0 0 1 0 0 0 0 1 0 0 0 1 0"/><feBlend in2="effect1_innerShadow_46_812" result="effect2_innerShadow_46_812"/></filter><filter id="f" x="309.959" y="54.934" width="56.959" height="50.25" filterUnits="userSpaceOnUse" color-interpolation-filters="sRGB"><feFlood flood-opacity="0" result="BackgroundImageFix"/><feBlend in="SourceGraphic" in2="BackgroundImageFix" result="shape"/><feColorMatrix in="SourceAlpha" values="0 0 0 0 0 0 0 0 0 0 0 0 0 0 0 0 0 0 127 0" result="hardAlpha"/><feOffset dx="2" dy="2"/><feGaussianBlur stdDeviation="2"/><feComposite in2="hardAlpha" operator="arithmetic" k2="-1" k3="1"/><feColorMatrix values="0 0 0 0 0.215686 0 0 0 0 0.329412 0 0 0 0 0.666667 0 0 0 0.1 0"/><feBlend in2="shape" result="effect1_innerShadow_46_812"/><feColorMatrix in="SourceAlpha" values="0 0 0 0 0 0 0 0 0 0 0 0 0 0 0 0 0 0 127 0" result="hardAlpha"/><feOffset dx="-2" dy="-2"/><feGaussianBlur stdDeviation="2"/><feComposite in2="hardAlpha" operator="arithmetic" k2="-1" k3="1"/><feColorMatrix values="0 0 0 0 1 0 0 0 0 1 0 0 0 0 1 0 0 0 1 0"/><feBlend in2="effect1_innerShadow_46_812" result="effect2_innerShadow_46_812"/></filter><filter id="g" x="265.897" y="73.826" width="64.96" height="58.25" filterUnits="userSpaceOnUse" color-interpolation-filters="sRGB"><feFlood flood-opacity="0" result="BackgroundImageFix"/><feColorMatrix in="SourceAlpha" values="0 0 0 0 0 0 0 0 0 0 0 0 0 0 0 0 0 0 127 0" result="hardAlpha"/><feOffset dx="2" dy="2"/><feGaussianBlur stdDeviation="2"/><feColorMatrix values="0 0 0 0 0.215686 0 0 0 0 0.329412 0 0 0 0 0.666667 0 0 0 0.1 0"/><feBlend in2="BackgroundImageFix" result="effect1_dropShadow_46_812"/><feColorMatrix in="SourceAlpha" values="0 0 0 0 0 0 0 0 0 0 0 0 0 0 0 0 0 0 127 0" result="hardAlpha"/><feOffset dx="-2" dy="-2"/><feGaussianBlur stdDeviation="2"/><feColorMatrix values="0 0 0 0 1 0 0 0 0 1 0 0 0 0 1 0 0 0 1 0"/><feBlend in2="effect1_dropShadow_46_812" result="effect2_dropShadow_46_812"/><feBlend in="SourceGraphic" in2="effect2_dropShadow_46_812" result="shape"/></filter><filter id="h" x="307.835" y="5.326" width="64.96" height="58.25" filterUnits="userSpaceOnUse" color-interpolation-filters="sRGB"><feFlood flood-opacity="0" result="BackgroundImageFix"/><feColorMatrix in="SourceAlpha" values="0 0 0 0 0 0 0 0 0 0 0 0 0 0 0 0 0 0 127 0" result="hardAlpha"/><feOffset dx="2" dy="2"/><feGaussianBlur stdDeviation="2"/><feColorMatrix values="0 0 0 0 0.215686 0 0 0 0 0.329412 0 0 0 0 0.666667 0 0 0 0.1 0"/><feBlend in2="BackgroundImageFix" result="effect1_dropShadow_46_812"/><feColorMatrix in="SourceAlpha" values="0 0 0 0 0 0 0 0 0 0 0 0 0 0 0 0 0 0 127 0" result="hardAlpha"/><feOffset dx="-2" dy="-2"/><feGaussianBlur stdDeviation="2"/><feColorMatrix values="0 0 0 0 1 0 0 0 0 1 0 0 0 0 1 0 0 0 1 0"/><feBlend in2="effect1_dropShadow_46_812" result="effect2_dropShadow_46_812"/><feBlend in="SourceGraphic" in2="effect2_dropShadow_46_812" result="shape"/></filter><filter id="i" x="176.917" y="63.826" width="84.96" height="78.25" filterUnits="userSpaceOnUse" color-interpolation-filters="sRGB"><feFlood flood-opacity="0" result="BackgroundImageFix"/><feColorMatrix in="SourceAlpha" values="0 0 0 0 0 0 0 0 0 0 0 0 0 0 0 0 0 0 127 0" result="hardAlpha"/><feOffset dx="6" dy="6"/><feGaussianBlur stdDeviation="5"/><feColorMatrix values="0 0 0 0 0.215686 0 0 0 0 0.329412 0 0 0 0 0.666667 0 0 0 0.15 0"/><feBlend in2="BackgroundImageFix" result="effect1_dropShadow_46_812"/><feColorMatrix in="SourceAlpha" values="0 0 0 0 0 0 0 0 0 0 0 0 0 0 0 0 0 0 127 0" result="hardAlpha"/><feOffset dx="-6" dy="-6"/><feGaussianBlur stdDeviation="5"/><feColorMatrix values="0 0 0 0 1 0 0 0 0 1 0 0 0 0 1 0 0 0 1 0"/><feBlend in2="effect1_dropShadow_46_812" result="effect2_dropShadow_46_812"/><feBlend in="SourceGraphic" in2="effect2_dropShadow_46_812" result="shape"/></filter><filter id="j" x="219.269" y="132.504" width="84.96" height="78.25" filterUnits="userSpaceOnUse" color-interpolation-filters="sRGB"><feFlood flood-opacity="0" result="BackgroundImageFix"/><feColorMatrix in="SourceAlpha" values="0 0 0 0 0 0 0 0 0 0 0 0 0 0 0 0 0 0 127 0" result="hardAlpha"/><feOffset dx="6" dy="6"/><feGaussianBlur stdDeviation="5"/><feColorMatrix values="0 0 0 0 0.215686 0 0 0 0 0.329412 0 0 0 0 0.666667 0 0 0 0.15 0"/><feBlend in2="BackgroundImageFix" result="effect1_dropShadow_46_812"/><feColorMatrix in="SourceAlpha" values="0 0 0 0 0 0 0 0 0 0 0 0 0 0 0 0 0 0 127 0" result="hardAlpha"/><feOffset dx="-6" dy="-6"/><feGaussianBlur stdDeviation="5"/><feColorMatrix values="0 0 0 0 1 0 0 0 0 1 0 0 0 0 1 0 0 0 1 0"/><feBlend in2="effect1_dropShadow_46_812" result="effect2_dropShadow_46_812"/><feBlend in="SourceGraphic" in2="effect2_dropShadow_46_812" result="shape"/></filter></defs></svg>