<svg width="398" height="242" fill="none" xmlns="http://www.w3.org/2000/svg"><g filter="url(#a)"><path d="m188.839 109.67 13.24-.028 13.24-.03 6.789 11.533 6.79 11.533-6.451 11.562-6.45 11.563-13.24.028-13.24.03-6.788-11.533-6.79-11.533 6.451-11.562 6.449-11.563Z" fill="#F1F3F6"/></g><g filter="url(#b)"><path d="m267.819 109.67 13.24-.028 13.239-.03 6.789 11.533 6.79 11.533-6.451 11.562-6.45 11.563-13.239.028-13.24.03-6.789-11.533-6.79-11.533 6.451-11.562 6.45-11.563Z" fill="#F1F3F6"/></g><g filter="url(#c)"><path d="m227.757 86.777 13.24-.028 13.239-.03 6.789 11.534 6.79 11.533-6.451 11.562-6.45 11.562-13.239.029-13.24.029-6.789-11.533-6.79-11.533 6.451-11.562 6.45-11.563Z" fill="#F1F3F6"/></g><g filter="url(#d)"><path d="m149.736 39.385 13.24-.029 13.24-.03 6.789 11.534 6.79 11.533-6.451 11.562-6.45 11.563-13.24.028-13.24.03-6.788-11.534-6.79-11.532 6.451-11.563 6.449-11.562Z" fill="#F1F3F6"/></g><g filter="url(#e)"><path d="m149.922 85.633 13.24-.028 13.24-.03 6.789 11.533 6.79 11.533-6.451 11.562-6.45 11.563-13.24.028-13.24.03-6.789-11.534-6.79-11.532 6.451-11.562 6.45-11.563Z" fill="#F1F3F6"/></g><g filter="url(#f)"><path d="m307.88 40.992 13.24-.028 13.24-.03 6.789 11.534L347.939 64l-6.451 11.562-6.45 11.563-13.24.028-13.24.03-6.788-11.533-6.79-11.533 6.451-11.562 6.449-11.563Z" fill="#F1F3F6"/></g><g filter="url(#g)"><path d="m268.736 156.385 13.24-.029 13.24-.029 6.789 11.533 6.79 11.533-6.451 11.562-6.45 11.563-13.24.028-13.24.03-6.788-11.534-6.79-11.532 6.451-11.562 6.449-11.563Z" fill="#F1F3F6"/></g><g filter="url(#h)"><path d="m109.86 108.525 13.24-.028 13.24-.03 6.789 11.534 6.79 11.533-6.451 11.562-6.45 11.562-13.24.029-13.24.029-6.789-11.533-6.79-11.533 6.451-11.562 6.45-11.563Z" fill="#F1F3F6"/></g><g filter="url(#i)"><path d="m347.736 156.385 13.24-.029 13.24-.029 6.789 11.533 6.79 11.533-6.451 11.562-6.45 11.563-13.24.028-13.24.03-6.788-11.534-6.79-11.532 6.451-11.562 6.449-11.563Z" fill="#F1F3F6"/></g><g filter="url(#j)"><path d="m109.86 62.74 13.24-.028 13.24-.03 6.789 11.534 6.79 11.532-6.451 11.562-6.45 11.563-13.24.029-13.24.029-6.789-11.533-6.79-11.533 6.451-11.562 6.45-11.563Z" fill="#F1F3F6"/></g><g filter="url(#k)"><path d="m69.736 39.385 13.24-.029 13.24-.03 6.789 11.534 6.79 11.533-6.451 11.562-6.45 11.563-13.24.028-13.24.03-6.788-11.534-6.79-11.532 6.45-11.563 6.45-11.562Z" fill="#F1F3F6"/></g><g filter="url(#l)"><path d="m187.736 16.385 13.24-.029 13.24-.03 6.789 11.534 6.79 11.533-6.451 11.562-6.45 11.563-13.24.028-13.24.03-6.788-11.534-6.79-11.532 6.451-11.562 6.449-11.563Z" fill="#F1F3F6"/></g><g filter="url(#m)"><path d="m29.736 16.385 13.24-.029 13.24-.03 6.789 11.534 6.79 11.533-6.451 11.562-6.45 11.563-13.24.028-13.24.03-6.788-11.534-6.79-11.532 6.45-11.562 6.45-11.563Z" fill="#F1F3F6"/></g><g filter="url(#n)"><path d="m267.819 63.885 13.24-.029 13.239-.03 6.789 11.534 6.79 11.533-6.451 11.562-6.45 11.563-13.239.028-13.24.03-6.789-11.534-6.79-11.532 6.451-11.563 6.45-11.562Z" fill="#F1F3F6"/></g><g filter="url(#o)"><path d="m187.736 62.74 13.24-.028 13.24-.03 6.789 11.534 6.79 11.532-6.451 11.562-6.45 11.563-13.24.029-13.24.029-6.788-11.533-6.79-11.533 6.451-11.562 6.449-11.563Z" fill="#F1F3F6"/></g><g filter="url(#p)"><path d="m307.736 133.385 13.24-.029 13.24-.029 6.789 11.533 6.79 11.533-6.451 11.562-6.45 11.563-13.24.028-13.24.03-6.788-11.534-6.79-11.532 6.451-11.562 6.449-11.563Z" fill="#F1F3F6"/></g><g filter="url(#q)"><path d="m307.736 179.385 13.24-.029 13.24-.029 6.789 11.533 6.79 11.533-6.451 11.562-6.45 11.563-13.24.028-13.24.03-6.788-11.534-6.79-11.532 6.451-11.562 6.449-11.563Z" fill="#F1F3F6"/></g><defs><filter id="a" x="172.938" y="106.611" width="58.96" height="52.25" filterUnits="userSpaceOnUse" color-interpolation-filters="sRGB"><feFlood flood-opacity="0" result="BackgroundImageFix"/><feBlend in="SourceGraphic" in2="BackgroundImageFix" result="shape"/><feColorMatrix in="SourceAlpha" values="0 0 0 0 0 0 0 0 0 0 0 0 0 0 0 0 0 0 127 0" result="hardAlpha"/><feOffset dx="3" dy="3"/><feGaussianBlur stdDeviation="3.5"/><feComposite in2="hardAlpha" operator="arithmetic" k2="-1" k3="1"/><feColorMatrix values="0 0 0 0 0.215686 0 0 0 0 0.329412 0 0 0 0 0.666667 0 0 0 0.12 0"/><feBlend in2="shape" result="effect1_innerShadow_46_986"/><feColorMatrix in="SourceAlpha" values="0 0 0 0 0 0 0 0 0 0 0 0 0 0 0 0 0 0 127 0" result="hardAlpha"/><feOffset dx="-3" dy="-3"/><feGaussianBlur stdDeviation="3.5"/><feComposite in2="hardAlpha" operator="arithmetic" k2="-1" k3="1"/><feColorMatrix values="0 0 0 0 1 0 0 0 0 1 0 0 0 0 1 0 0 0 1 0"/><feBlend in2="effect1_innerShadow_46_986" result="effect2_innerShadow_46_986"/></filter><filter id="b" x="249.918" y="104.611" width="62.96" height="56.25" filterUnits="userSpaceOnUse" color-interpolation-filters="sRGB"><feFlood flood-opacity="0" result="BackgroundImageFix"/><feBlend in="SourceGraphic" in2="BackgroundImageFix" result="shape"/><feColorMatrix in="SourceAlpha" values="0 0 0 0 0 0 0 0 0 0 0 0 0 0 0 0 0 0 127 0" result="hardAlpha"/><feOffset dx="5" dy="5"/><feGaussianBlur stdDeviation="4"/><feComposite in2="hardAlpha" operator="arithmetic" k2="-1" k3="1"/><feColorMatrix values="0 0 0 0 0.215686 0 0 0 0 0.329412 0 0 0 0 0.666667 0 0 0 0.1 0"/><feBlend in2="shape" result="effect1_innerShadow_46_986"/><feColorMatrix in="SourceAlpha" values="0 0 0 0 0 0 0 0 0 0 0 0 0 0 0 0 0 0 127 0" result="hardAlpha"/><feOffset dx="-5" dy="-5"/><feGaussianBlur stdDeviation="4.5"/><feComposite in2="hardAlpha" operator="arithmetic" k2="-1" k3="1"/><feColorMatrix values="0 0 0 0 1 0 0 0 0 1 0 0 0 0 1 0 0 0 1 0"/><feBlend in2="effect1_innerShadow_46_986" result="effect2_innerShadow_46_986"/></filter><filter id="c" x="208.856" y="80.719" width="64.96" height="58.25" filterUnits="userSpaceOnUse" color-interpolation-filters="sRGB"><feFlood flood-opacity="0" result="BackgroundImageFix"/><feColorMatrix in="SourceAlpha" values="0 0 0 0 0 0 0 0 0 0 0 0 0 0 0 0 0 0 127 0" result="hardAlpha"/><feOffset dx="2" dy="2"/><feGaussianBlur stdDeviation="2"/><feColorMatrix values="0 0 0 0 0.215686 0 0 0 0 0.329412 0 0 0 0 0.666667 0 0 0 0.1 0"/><feBlend in2="BackgroundImageFix" result="effect1_dropShadow_46_986"/><feColorMatrix in="SourceAlpha" values="0 0 0 0 0 0 0 0 0 0 0 0 0 0 0 0 0 0 127 0" result="hardAlpha"/><feOffset dx="-2" dy="-2"/><feGaussianBlur stdDeviation="2"/><feColorMatrix values="0 0 0 0 1 0 0 0 0 1 0 0 0 0 1 0 0 0 1 0"/><feBlend in2="effect1_dropShadow_46_986" result="effect2_dropShadow_46_986"/><feBlend in="SourceGraphic" in2="effect2_dropShadow_46_986" result="shape"/></filter><filter id="d" x="130.835" y="33.326" width="64.96" height="58.25" filterUnits="userSpaceOnUse" color-interpolation-filters="sRGB"><feFlood flood-opacity="0" result="BackgroundImageFix"/><feColorMatrix in="SourceAlpha" values="0 0 0 0 0 0 0 0 0 0 0 0 0 0 0 0 0 0 127 0" result="hardAlpha"/><feOffset dx="2" dy="2"/><feGaussianBlur stdDeviation="2"/><feColorMatrix values="0 0 0 0 0.215686 0 0 0 0 0.329412 0 0 0 0 0.666667 0 0 0 0.1 0"/><feBlend in2="BackgroundImageFix" result="effect1_dropShadow_46_986"/><feColorMatrix in="SourceAlpha" values="0 0 0 0 0 0 0 0 0 0 0 0 0 0 0 0 0 0 127 0" result="hardAlpha"/><feOffset dx="-2" dy="-2"/><feGaussianBlur stdDeviation="2"/><feColorMatrix values="0 0 0 0 1 0 0 0 0 1 0 0 0 0 1 0 0 0 1 0"/><feBlend in2="effect1_dropShadow_46_986" result="effect2_dropShadow_46_986"/><feBlend in="SourceGraphic" in2="effect2_dropShadow_46_986" result="shape"/></filter><filter id="e" x="135.021" y="83.574" width="56.96" height="50.25" filterUnits="userSpaceOnUse" color-interpolation-filters="sRGB"><feFlood flood-opacity="0" result="BackgroundImageFix"/><feBlend in="SourceGraphic" in2="BackgroundImageFix" result="shape"/><feColorMatrix in="SourceAlpha" values="0 0 0 0 0 0 0 0 0 0 0 0 0 0 0 0 0 0 127 0" result="hardAlpha"/><feOffset dx="2" dy="2"/><feGaussianBlur stdDeviation="2"/><feComposite in2="hardAlpha" operator="arithmetic" k2="-1" k3="1"/><feColorMatrix values="0 0 0 0 0.215686 0 0 0 0 0.329412 0 0 0 0 0.666667 0 0 0 0.1 0"/><feBlend in2="shape" result="effect1_innerShadow_46_986"/><feColorMatrix in="SourceAlpha" values="0 0 0 0 0 0 0 0 0 0 0 0 0 0 0 0 0 0 127 0" result="hardAlpha"/><feOffset dx="-2" dy="-2"/><feGaussianBlur stdDeviation="2"/><feComposite in2="hardAlpha" operator="arithmetic" k2="-1" k3="1"/><feColorMatrix values="0 0 0 0 1 0 0 0 0 1 0 0 0 0 1 0 0 0 1 0"/><feBlend in2="effect1_innerShadow_46_986" result="effect2_innerShadow_46_986"/></filter><filter id="f" x="292.979" y="38.934" width="56.96" height="50.25" filterUnits="userSpaceOnUse" color-interpolation-filters="sRGB"><feFlood flood-opacity="0" result="BackgroundImageFix"/><feBlend in="SourceGraphic" in2="BackgroundImageFix" result="shape"/><feColorMatrix in="SourceAlpha" values="0 0 0 0 0 0 0 0 0 0 0 0 0 0 0 0 0 0 127 0" result="hardAlpha"/><feOffset dx="2" dy="2"/><feGaussianBlur stdDeviation="2"/><feComposite in2="hardAlpha" operator="arithmetic" k2="-1" k3="1"/><feColorMatrix values="0 0 0 0 0.215686 0 0 0 0 0.329412 0 0 0 0 0.666667 0 0 0 0.1 0"/><feBlend in2="shape" result="effect1_innerShadow_46_986"/><feColorMatrix in="SourceAlpha" values="0 0 0 0 0 0 0 0 0 0 0 0 0 0 0 0 0 0 127 0" result="hardAlpha"/><feOffset dx="-2" dy="-2"/><feGaussianBlur stdDeviation="2"/><feComposite in2="hardAlpha" operator="arithmetic" k2="-1" k3="1"/><feColorMatrix values="0 0 0 0 1 0 0 0 0 1 0 0 0 0 1 0 0 0 1 0"/><feBlend in2="effect1_innerShadow_46_986" result="effect2_innerShadow_46_986"/></filter><filter id="g" x="253.835" y="154.326" width="56.96" height="50.25" filterUnits="userSpaceOnUse" color-interpolation-filters="sRGB"><feFlood flood-opacity="0" result="BackgroundImageFix"/><feBlend in="SourceGraphic" in2="BackgroundImageFix" result="shape"/><feColorMatrix in="SourceAlpha" values="0 0 0 0 0 0 0 0 0 0 0 0 0 0 0 0 0 0 127 0" result="hardAlpha"/><feOffset dx="2" dy="2"/><feGaussianBlur stdDeviation="2"/><feComposite in2="hardAlpha" operator="arithmetic" k2="-1" k3="1"/><feColorMatrix values="0 0 0 0 0.215686 0 0 0 0 0.329412 0 0 0 0 0.666667 0 0 0 0.1 0"/><feBlend in2="shape" result="effect1_innerShadow_46_986"/><feColorMatrix in="SourceAlpha" values="0 0 0 0 0 0 0 0 0 0 0 0 0 0 0 0 0 0 127 0" result="hardAlpha"/><feOffset dx="-2" dy="-2"/><feGaussianBlur stdDeviation="2"/><feComposite in2="hardAlpha" operator="arithmetic" k2="-1" k3="1"/><feColorMatrix values="0 0 0 0 1 0 0 0 0 1 0 0 0 0 1 0 0 0 1 0"/><feBlend in2="effect1_innerShadow_46_986" result="effect2_innerShadow_46_986"/></filter><filter id="h" x="90.959" y="102.467" width="64.96" height="58.25" filterUnits="userSpaceOnUse" color-interpolation-filters="sRGB"><feFlood flood-opacity="0" result="BackgroundImageFix"/><feColorMatrix in="SourceAlpha" values="0 0 0 0 0 0 0 0 0 0 0 0 0 0 0 0 0 0 127 0" result="hardAlpha"/><feOffset dx="2" dy="2"/><feGaussianBlur stdDeviation="2"/><feColorMatrix values="0 0 0 0 0.215686 0 0 0 0 0.329412 0 0 0 0 0.666667 0 0 0 0.1 0"/><feBlend in2="BackgroundImageFix" result="effect1_dropShadow_46_986"/><feColorMatrix in="SourceAlpha" values="0 0 0 0 0 0 0 0 0 0 0 0 0 0 0 0 0 0 127 0" result="hardAlpha"/><feOffset dx="-2" dy="-2"/><feGaussianBlur stdDeviation="2"/><feColorMatrix values="0 0 0 0 1 0 0 0 0 1 0 0 0 0 1 0 0 0 1 0"/><feBlend in2="effect1_dropShadow_46_986" result="effect2_dropShadow_46_986"/><feBlend in="SourceGraphic" in2="effect2_dropShadow_46_986" result="shape"/></filter><filter id="i" x="328.835" y="150.326" width="64.96" height="58.25" filterUnits="userSpaceOnUse" color-interpolation-filters="sRGB"><feFlood flood-opacity="0" result="BackgroundImageFix"/><feColorMatrix in="SourceAlpha" values="0 0 0 0 0 0 0 0 0 0 0 0 0 0 0 0 0 0 127 0" result="hardAlpha"/><feOffset dx="2" dy="2"/><feGaussianBlur stdDeviation="2"/><feColorMatrix values="0 0 0 0 0.215686 0 0 0 0 0.329412 0 0 0 0 0.666667 0 0 0 0.1 0"/><feBlend in2="BackgroundImageFix" result="effect1_dropShadow_46_986"/><feColorMatrix in="SourceAlpha" values="0 0 0 0 0 0 0 0 0 0 0 0 0 0 0 0 0 0 127 0" result="hardAlpha"/><feOffset dx="-2" dy="-2"/><feGaussianBlur stdDeviation="2"/><feColorMatrix values="0 0 0 0 1 0 0 0 0 1 0 0 0 0 1 0 0 0 1 0"/><feBlend in2="effect1_dropShadow_46_986" result="effect2_dropShadow_46_986"/><feBlend in="SourceGraphic" in2="effect2_dropShadow_46_986" result="shape"/></filter><filter id="j" x="80.959" y="46.682" width="84.96" height="78.25" filterUnits="userSpaceOnUse" color-interpolation-filters="sRGB"><feFlood flood-opacity="0" result="BackgroundImageFix"/><feColorMatrix in="SourceAlpha" values="0 0 0 0 0 0 0 0 0 0 0 0 0 0 0 0 0 0 127 0" result="hardAlpha"/><feOffset dx="6" dy="6"/><feGaussianBlur stdDeviation="5"/><feColorMatrix values="0 0 0 0 0.215686 0 0 0 0 0.329412 0 0 0 0 0.666667 0 0 0 0.15 0"/><feBlend in2="BackgroundImageFix" result="effect1_dropShadow_46_986"/><feColorMatrix in="SourceAlpha" values="0 0 0 0 0 0 0 0 0 0 0 0 0 0 0 0 0 0 127 0" result="hardAlpha"/><feOffset dx="-6" dy="-6"/><feGaussianBlur stdDeviation="5"/><feColorMatrix values="0 0 0 0 1 0 0 0 0 1 0 0 0 0 1 0 0 0 1 0"/><feBlend in2="effect1_dropShadow_46_986" result="effect2_dropShadow_46_986"/><feBlend in="SourceGraphic" in2="effect2_dropShadow_46_986" result="shape"/></filter><filter id="k" x="40.835" y="23.326" width="84.96" height="78.25" filterUnits="userSpaceOnUse" color-interpolation-filters="sRGB"><feFlood flood-opacity="0" result="BackgroundImageFix"/><feColorMatrix in="SourceAlpha" values="0 0 0 0 0 0 0 0 0 0 0 0 0 0 0 0 0 0 127 0" result="hardAlpha"/><feOffset dx="6" dy="6"/><feGaussianBlur stdDeviation="5"/><feColorMatrix values="0 0 0 0 0.215686 0 0 0 0 0.329412 0 0 0 0 0.666667 0 0 0 0.15 0"/><feBlend in2="BackgroundImageFix" result="effect1_dropShadow_46_986"/><feColorMatrix in="SourceAlpha" values="0 0 0 0 0 0 0 0 0 0 0 0 0 0 0 0 0 0 127 0" result="hardAlpha"/><feOffset dx="-6" dy="-6"/><feGaussianBlur stdDeviation="5"/><feColorMatrix values="0 0 0 0 1 0 0 0 0 1 0 0 0 0 1 0 0 0 1 0"/><feBlend in2="effect1_dropShadow_46_986" result="effect2_dropShadow_46_986"/><feBlend in="SourceGraphic" in2="effect2_dropShadow_46_986" result="shape"/></filter><filter id="l" x="158.835" y=".326" width="84.96" height="78.25" filterUnits="userSpaceOnUse" color-interpolation-filters="sRGB"><feFlood flood-opacity="0" result="BackgroundImageFix"/><feColorMatrix in="SourceAlpha" values="0 0 0 0 0 0 0 0 0 0 0 0 0 0 0 0 0 0 127 0" result="hardAlpha"/><feOffset dx="6" dy="6"/><feGaussianBlur stdDeviation="5"/><feColorMatrix values="0 0 0 0 0.215686 0 0 0 0 0.329412 0 0 0 0 0.666667 0 0 0 0.15 0"/><feBlend in2="BackgroundImageFix" result="effect1_dropShadow_46_986"/><feColorMatrix in="SourceAlpha" values="0 0 0 0 0 0 0 0 0 0 0 0 0 0 0 0 0 0 127 0" result="hardAlpha"/><feOffset dx="-6" dy="-6"/><feGaussianBlur stdDeviation="5"/><feColorMatrix values="0 0 0 0 1 0 0 0 0 1 0 0 0 0 1 0 0 0 1 0"/><feBlend in2="effect1_dropShadow_46_986" result="effect2_dropShadow_46_986"/><feBlend in="SourceGraphic" in2="effect2_dropShadow_46_986" result="shape"/></filter><filter id="m" x=".835" y=".326" width="84.96" height="78.25" filterUnits="userSpaceOnUse" color-interpolation-filters="sRGB"><feFlood flood-opacity="0" result="BackgroundImageFix"/><feColorMatrix in="SourceAlpha" values="0 0 0 0 0 0 0 0 0 0 0 0 0 0 0 0 0 0 127 0" result="hardAlpha"/><feOffset dx="6" dy="6"/><feGaussianBlur stdDeviation="5"/><feColorMatrix values="0 0 0 0 0.215686 0 0 0 0 0.329412 0 0 0 0 0.666667 0 0 0 0.15 0"/><feBlend in2="BackgroundImageFix" result="effect1_dropShadow_46_986"/><feColorMatrix in="SourceAlpha" values="0 0 0 0 0 0 0 0 0 0 0 0 0 0 0 0 0 0 127 0" result="hardAlpha"/><feOffset dx="-6" dy="-6"/><feGaussianBlur stdDeviation="5"/><feColorMatrix values="0 0 0 0 1 0 0 0 0 1 0 0 0 0 1 0 0 0 1 0"/><feBlend in2="effect1_dropShadow_46_986" result="effect2_dropShadow_46_986"/><feBlend in="SourceGraphic" in2="effect2_dropShadow_46_986" result="shape"/></filter><filter id="n" x="238.918" y="47.826" width="84.96" height="78.25" filterUnits="userSpaceOnUse" color-interpolation-filters="sRGB"><feFlood flood-opacity="0" result="BackgroundImageFix"/><feColorMatrix in="SourceAlpha" values="0 0 0 0 0 0 0 0 0 0 0 0 0 0 0 0 0 0 127 0" result="hardAlpha"/><feOffset dx="6" dy="6"/><feGaussianBlur stdDeviation="5"/><feColorMatrix values="0 0 0 0 0.215686 0 0 0 0 0.329412 0 0 0 0 0.666667 0 0 0 0.15 0"/><feBlend in2="BackgroundImageFix" result="effect1_dropShadow_46_986"/><feColorMatrix in="SourceAlpha" values="0 0 0 0 0 0 0 0 0 0 0 0 0 0 0 0 0 0 127 0" result="hardAlpha"/><feOffset dx="-6" dy="-6"/><feGaussianBlur stdDeviation="5"/><feColorMatrix values="0 0 0 0 1 0 0 0 0 1 0 0 0 0 1 0 0 0 1 0"/><feBlend in2="effect1_dropShadow_46_986" result="effect2_dropShadow_46_986"/><feBlend in="SourceGraphic" in2="effect2_dropShadow_46_986" result="shape"/></filter><filter id="o" x="158.835" y="46.682" width="84.96" height="78.25" filterUnits="userSpaceOnUse" color-interpolation-filters="sRGB"><feFlood flood-opacity="0" result="BackgroundImageFix"/><feColorMatrix in="SourceAlpha" values="0 0 0 0 0 0 0 0 0 0 0 0 0 0 0 0 0 0 127 0" result="hardAlpha"/><feOffset dx="6" dy="6"/><feGaussianBlur stdDeviation="5"/><feColorMatrix values="0 0 0 0 0.215686 0 0 0 0 0.329412 0 0 0 0 0.666667 0 0 0 0.15 0"/><feBlend in2="BackgroundImageFix" result="effect1_dropShadow_46_986"/><feColorMatrix in="SourceAlpha" values="0 0 0 0 0 0 0 0 0 0 0 0 0 0 0 0 0 0 127 0" result="hardAlpha"/><feOffset dx="-6" dy="-6"/><feGaussianBlur stdDeviation="5"/><feColorMatrix values="0 0 0 0 1 0 0 0 0 1 0 0 0 0 1 0 0 0 1 0"/><feBlend in2="effect1_dropShadow_46_986" result="effect2_dropShadow_46_986"/><feBlend in="SourceGraphic" in2="effect2_dropShadow_46_986" result="shape"/></filter><filter id="p" x="278.835" y="117.326" width="84.96" height="78.25" filterUnits="userSpaceOnUse" color-interpolation-filters="sRGB"><feFlood flood-opacity="0" result="BackgroundImageFix"/><feColorMatrix in="SourceAlpha" values="0 0 0 0 0 0 0 0 0 0 0 0 0 0 0 0 0 0 127 0" result="hardAlpha"/><feOffset dx="6" dy="6"/><feGaussianBlur stdDeviation="5"/><feColorMatrix values="0 0 0 0 0.215686 0 0 0 0 0.329412 0 0 0 0 0.666667 0 0 0 0.15 0"/><feBlend in2="BackgroundImageFix" result="effect1_dropShadow_46_986"/><feColorMatrix in="SourceAlpha" values="0 0 0 0 0 0 0 0 0 0 0 0 0 0 0 0 0 0 127 0" result="hardAlpha"/><feOffset dx="-6" dy="-6"/><feGaussianBlur stdDeviation="5"/><feColorMatrix values="0 0 0 0 1 0 0 0 0 1 0 0 0 0 1 0 0 0 1 0"/><feBlend in2="effect1_dropShadow_46_986" result="effect2_dropShadow_46_986"/><feBlend in="SourceGraphic" in2="effect2_dropShadow_46_986" result="shape"/></filter><filter id="q" x="278.835" y="163.326" width="84.96" height="78.25" filterUnits="userSpaceOnUse" color-interpolation-filters="sRGB"><feFlood flood-opacity="0" result="BackgroundImageFix"/><feColorMatrix in="SourceAlpha" values="0 0 0 0 0 0 0 0 0 0 0 0 0 0 0 0 0 0 127 0" result="hardAlpha"/><feOffset dx="6" dy="6"/><feGaussianBlur stdDeviation="5"/><feColorMatrix values="0 0 0 0 0.215686 0 0 0 0 0.329412 0 0 0 0 0.666667 0 0 0 0.1 0"/><feBlend in2="BackgroundImageFix" result="effect1_dropShadow_46_986"/><feColorMatrix in="SourceAlpha" values="0 0 0 0 0 0 0 0 0 0 0 0 0 0 0 0 0 0 127 0" result="hardAlpha"/><feOffset dx="-6" dy="-6"/><feGaussianBlur stdDeviation="5"/><feColorMatrix values="0 0 0 0 1 0 0 0 0 1 0 0 0 0 1 0 0 0 1 0"/><feBlend in2="effect1_dropShadow_46_986" result="effect2_dropShadow_46_986"/><feBlend in="SourceGraphic" in2="effect2_dropShadow_46_986" result="shape"/></filter></defs></svg>