<svg width="199" height="14" fill="none" xmlns="http://www.w3.org/2000/svg"><path d="M4.569 13.493 0 .035h3.152l2.762 9.067L8.924 0h2.515l3.01 9.102L17.212.035h3.081l-4.568 13.458h-2.55l-3.01-8.747-3.011 8.747H4.569Zm17.92-.071V.035h10.094v2.621h-7.19v2.727h6.304v2.62h-6.304v2.799h7.26v2.62H22.49Zm12.784 0V.035h6.198c1.558 0 2.692.39 3.506 1.17.602.601.921 1.38.921 2.266v.07c0 1.31-.602 2.267-1.77 2.87.814.318 1.451.743 1.876 1.239.425.496.638 1.204.638 2.054v.035c0 1.204-.46 2.125-1.346 2.727-.885.638-2.125.921-3.683.921h-6.34v.035Zm7.721-9.385v-.035c0-.92-.638-1.381-1.912-1.381h-2.904v2.833h2.727c1.38 0 2.089-.496 2.089-1.417Zm.744 5.348V9.35c0-.957-.744-1.452-2.196-1.452h-3.4v2.94h3.506c1.381 0 2.09-.497 2.09-1.453Zm5.348 4.037V.035h3.187l3.506 5.667L59.285.035h3.188v13.387h-2.94V4.675l-3.754 5.702h-.07l-3.72-5.667v8.677h-2.903v.035Zm16.716 0V.035h2.94v13.387h-2.94Zm6.269 0V.035h2.727l6.269 8.252V.035h2.904v13.387h-2.515l-6.48-8.5v8.5H72.07Zm15.122 0V.035H92.4c2.09 0 3.79.638 5.1 1.913 1.346 1.275 1.983 2.833 1.983 4.745v.036c0 1.912-.672 3.506-1.983 4.781-1.346 1.275-3.046 1.912-5.1 1.912h-5.206ZM92.4 2.692h-2.266v8.074H92.4c1.204 0 2.16-.354 2.904-1.098.744-.743 1.134-1.7 1.134-2.868v-.071c0-1.169-.39-2.16-1.134-2.904-.743-.744-1.7-1.133-2.904-1.133Zm8.535 10.731v-3.046h3.081v3.046h-3.081Zm10.447.212c-1.452 0-2.692-.496-3.648-1.487-.991-.992-1.452-2.196-1.452-3.613V8.5c0-1.417.496-2.656 1.488-3.648.991-.992 2.195-1.523 3.683-1.523 1.452 0 2.691.496 3.683 1.488.992.991 1.488 2.195 1.488 3.612v.07c0 1.417-.496 2.657-1.488 3.649-1.062.991-2.302 1.487-3.754 1.487Zm.035-1.31c1.028 0 1.913-.354 2.586-1.098.673-.744 1.027-1.63 1.027-2.692V8.5c0-1.063-.354-1.984-1.063-2.727-.708-.744-1.593-1.134-2.62-1.134-1.063 0-1.913.39-2.586 1.134-.673.744-1.027 1.629-1.027 2.691V8.5c0 1.062.354 1.983 1.063 2.727.708.743 1.593 1.098 2.62 1.098Zm11.404 1.31c-1.169 0-2.09-.354-2.763-1.098-.673-.744-1.027-1.664-1.027-2.868V3.542h1.488v5.772c0 .921.248 1.665.708 2.196.46.531 1.133.78 2.019.78.85 0 1.558-.284 2.125-.85.566-.567.85-1.311.85-2.232V3.542h1.452v9.88h-1.452v-1.735c-.815 1.31-1.948 1.948-3.4 1.948Zm11.475-.035c-.85 0-1.523-.213-2.019-.673-.496-.46-.743-1.169-.743-2.125v-5.95h-1.382v-1.31h1.382V.567h1.487v2.975h3.117v1.31h-3.117v5.773c0 1.098.567 1.629 1.665 1.629.495 0 .956-.106 1.416-.354v1.275a3.877 3.877 0 0 1-1.806.425Zm7.65 0c-1.523 0-2.869-.496-4.073-1.452l.744-1.063c1.098.85 2.231 1.275 3.435 1.275.602 0 1.098-.142 1.488-.425.389-.283.566-.673.566-1.133v-.036c0-.46-.212-.779-.637-1.027-.425-.248-1.027-.46-1.842-.708-.354-.106-.602-.177-.779-.248-.177-.07-.425-.142-.744-.283-.319-.142-.566-.248-.708-.39-.177-.106-.319-.283-.531-.46a1.485 1.485 0 0 1-.39-.638c-.071-.248-.142-.495-.142-.814v-.036c0-.85.319-1.523.957-2.054.637-.531 1.452-.779 2.408-.779 1.275 0 2.444.354 3.541 1.098l-.672 1.098c-.992-.638-1.948-.956-2.94-.956-.567 0-1.027.141-1.381.39-.354.283-.531.601-.531 1.026v.036a.81.81 0 0 0 .141.495c.107.142.213.284.354.39.142.106.319.213.603.319.283.106.495.212.672.248.178.035.425.141.78.248.354.106.672.212.92.318.248.107.532.213.85.39.319.177.567.319.744.531.177.177.354.425.46.708.142.284.178.603.178.921v.036c0 .92-.319 1.629-.992 2.16-.602.567-1.452.815-2.479.815Zm10.766.035c-1.452 0-2.692-.496-3.648-1.487-.991-.992-1.452-2.196-1.452-3.613V8.5c0-1.417.496-2.656 1.488-3.648.991-.992 2.195-1.523 3.683-1.523 1.452 0 2.691.496 3.683 1.488.992.991 1.488 2.195 1.488 3.612v.07c0 1.417-.496 2.657-1.488 3.649-1.027.991-2.266 1.487-3.754 1.487Zm.035-1.31c1.028 0 1.913-.354 2.586-1.098.673-.744 1.027-1.63 1.027-2.692V8.5c0-1.063-.354-1.984-1.063-2.727-.708-.744-1.593-1.134-2.62-1.134-1.063 0-1.913.39-2.586 1.134-.673.743-1.027 1.629-1.027 2.691V8.5c0 1.062.354 1.983 1.063 2.727.743.743 1.593 1.098 2.62 1.098Zm11.44 1.31c-1.169 0-2.09-.354-2.762-1.098-.673-.744-1.028-1.664-1.028-2.868V3.542h1.488v5.772c0 .921.248 1.665.708 2.196.461.531 1.134.78 2.019.78.85 0 1.558-.284 2.125-.85.566-.567.85-1.311.85-2.232V3.542h1.452v9.88h-1.452v-1.735c-.815 1.31-1.948 1.948-3.4 1.948Zm8.145-.213v-9.88h1.488v2.585c.389-.85.92-1.523 1.629-2.019a3.792 3.792 0 0 1 2.408-.708v1.558h-.106c-1.134 0-2.054.39-2.798 1.169-.744.779-1.098 1.912-1.098 3.329v3.931h-1.523v.035Zm11.758.213c-1.452 0-2.656-.496-3.612-1.523-.957-.992-1.452-2.196-1.452-3.612 0-1.417.495-2.656 1.452-3.648.956-.992 2.16-1.523 3.612-1.523 1.523 0 2.833.602 3.967 1.77l-.992 1.028c-.956-.992-1.948-1.488-3.01-1.488-.992 0-1.842.355-2.515 1.098-.673.744-1.027 1.63-1.027 2.727V8.5c0 1.062.354 1.983 1.027 2.727.708.743 1.558 1.133 2.585 1.133 1.098 0 2.09-.496 3.011-1.487l.921.885c-1.063 1.24-2.409 1.877-3.967 1.877Zm10.483 0c-1.381 0-2.55-.496-3.506-1.452S189.65 9.987 189.65 8.5v-.036c0-1.452.461-2.656 1.346-3.647.886-.992 2.019-1.488 3.4-1.488 1.417 0 2.55.496 3.365 1.488.814.991 1.239 2.23 1.239 3.718 0 .213 0 .354-.035.46h-7.827c.106 1.028.496 1.878 1.133 2.444a3.383 3.383 0 0 0 2.338.886c1.168 0 2.195-.46 3.116-1.382l.921.815c-1.062 1.275-2.444 1.877-4.073 1.877Zm-3.435-5.702h6.375c-.071-.956-.39-1.77-.921-2.408-.531-.638-1.275-.956-2.231-.956-.85 0-1.594.318-2.161.956-.602.637-.956 1.452-1.062 2.408Z" fill="#5E5D79"/></svg>